<svg width="1200" height="630" viewBox="0 0 1200 630" xmlns="http://www.w3.org/2000/svg"><rect x="0" y="0" width="1200" height="630" fill="#22d3ee"/><defs><clipPath id="satori_bc-id-0-0"><path x="48" y="48" width="1104" height="534" d="M56,48 h1088 a8,8 0 0 1 8,8 v518 a8,8 0 0 1 -8,8 h-1088 a8,8 0 0 1 -8,-8 v-518 a8,8 0 0 1 8,-8"/></clipPath></defs><path x="48" y="48" width="1104" height="534" fill="white" d="M56,48 h1088 a8,8 0 0 1 8,8 v518 a8,8 0 0 1 -8,8 h-1088 a8,8 0 0 1 -8,-8 v-518 a8,8 0 0 1 8,-8" style="filter:drop-shadow(6px 6px 0 rgba(0, 0, 0, 1))"/><path width="1104" height="534" clip-path="url(#satori_bc-id-0-0)" fill="none" stroke="black" stroke-width="12" d="M50.343,50.343 A8,8 0 0 1 56,48 h1088 a8,8 0 0 1 8,8 v518 a8,8 0 0 1 -8,8 h-1088 a8,8 0 0 1 -8,-8 v-518 A8,8 0 0 1 50.343,50.343"/><path fill="black" d="M103.9 146.9L89.0 146.9L89.0 112.0L103.0 112.0Q106.9 112.0 109.4 113.2Q112.0 114.3 113.3 116.3Q114.6 118.3 114.6 121.0L114.6 121.0Q114.6 123.0 113.8 124.6Q113.0 126.1 111.5 127.1Q110.1 128.1 108.3 128.5L108.3 128.5L108.3 128.8Q110.3 128.9 112.0 129.9Q113.8 131.0 114.9 132.8Q116.0 134.7 116.0 137.3L116.0 137.3Q116.0 140.1 114.6 142.2Q113.2 144.4 110.5 145.7Q107.9 146.9 103.9 146.9L103.9 146.9ZM96.4 131.6L96.4 140.9L102.4 140.9Q105.5 140.9 106.9 139.7Q108.3 138.5 108.3 136.5L108.3 136.5Q108.3 135.1 107.6 134.0Q106.9 132.9 105.7 132.3Q104.4 131.6 102.6 131.6L102.6 131.6L96.4 131.6ZM96.4 118.0L96.4 126.6L101.9 126.6Q103.4 126.6 104.6 126.1Q105.8 125.6 106.5 124.6Q107.2 123.6 107.2 122.2L107.2 122.2Q107.2 120.3 105.8 119.1Q104.5 118.0 102.0 118.0L102.0 118.0L96.4 118.0ZM127.9 146.9L120.6 146.9L120.6 120.7L127.7 120.7L127.7 125.3L127.9 125.3Q128.6 122.9 130.3 121.6Q132.0 120.4 134.2 120.4L134.2 120.4Q134.8 120.4 135.4 120.4Q136.0 120.5 136.5 120.6L136.5 120.6L136.5 127.1Q136.0 126.9 135.1 126.8Q134.2 126.7 133.4 126.7L133.4 126.7Q131.8 126.7 130.6 127.4Q129.3 128.1 128.6 129.3Q127.9 130.5 127.9 132.1L127.9 132.1L127.9 146.9ZM147.0 147.4L147.0 147.4Q144.5 147.4 142.5 146.5Q140.5 145.7 139.4 143.9Q138.3 142.2 138.3 139.6L138.3 139.6Q138.3 137.4 139.1 136.0Q139.9 134.5 141.3 133.6Q142.6 132.7 144.4 132.2Q146.2 131.7 148.1 131.6L148.1 131.6Q150.4 131.3 151.8 131.1Q153.2 130.9 153.8 130.5Q154.5 130.0 154.5 129.2L154.5 129.2L154.5 129.1Q154.5 127.5 153.4 126.6Q152.4 125.7 150.6 125.7L150.6 125.7Q148.6 125.7 147.4 126.6Q146.3 127.4 145.9 128.7L145.9 128.7L139.2 128.2Q139.7 125.8 141.2 124.0Q142.7 122.3 145.1 121.4Q147.5 120.4 150.6 120.4L150.6 120.4Q152.8 120.4 154.8 120.9Q156.8 121.4 158.3 122.5Q159.9 123.6 160.8 125.3Q161.7 126.9 161.7 129.3L161.7 129.3L161.7 146.9L154.8 146.9L154.8 143.3L154.6 143.3Q154.0 144.5 152.9 145.5Q151.9 146.4 150.4 146.9Q148.9 147.4 147.0 147.4ZM149.1 142.4L149.1 142.4Q150.7 142.4 151.9 141.8Q153.1 141.1 153.8 140.0Q154.5 139.0 154.5 137.6L154.5 137.6L154.5 134.8Q154.2 135.0 153.6 135.2Q153.0 135.4 152.3 135.5Q151.5 135.7 150.8 135.8Q150.1 135.9 149.5 136.0L149.5 136.0Q148.2 136.2 147.2 136.6Q146.3 137.0 145.7 137.7Q145.2 138.4 145.2 139.4L145.2 139.4Q145.2 140.9 146.3 141.6Q147.4 142.4 149.1 142.4ZM174.6 131.8L174.6 131.8L174.6 146.9L167.4 146.9L167.4 120.7L174.3 120.7L174.3 125.4L174.6 125.4Q175.5 123.1 177.5 121.7Q179.5 120.4 182.5 120.4L182.5 120.4Q185.2 120.4 187.2 121.6Q189.2 122.8 190.4 125.0Q191.5 127.2 191.5 130.3L191.5 130.3L191.5 146.9L184.2 146.9L184.2 131.6Q184.3 129.1 183.0 127.8Q181.8 126.4 179.6 126.4L179.6 126.4Q178.1 126.4 177.0 127.1Q175.9 127.7 175.3 128.9Q174.6 130.1 174.6 131.8ZM206.9 147.4L206.9 147.4Q203.9 147.4 201.5 145.8Q199.0 144.3 197.6 141.3Q196.2 138.3 196.2 133.9L196.2 133.9Q196.2 129.4 197.7 126.4Q199.1 123.4 201.5 121.9Q204.0 120.4 206.8 120.4L206.8 120.4Q209.0 120.4 210.5 121.1Q212.0 121.9 212.9 123.0Q213.8 124.1 214.3 125.1L214.3 125.1L214.5 125.1L214.5 112.0L221.8 112.0L221.8 146.9L214.6 146.9L214.6 142.7L214.3 142.7Q213.8 143.8 212.8 144.9Q211.9 146.0 210.4 146.7Q209.0 147.4 206.9 147.4ZM209.2 141.6L209.2 141.6Q210.9 141.6 212.1 140.6Q213.3 139.6 214.0 137.9Q214.7 136.2 214.7 133.8L214.7 133.8Q214.7 131.5 214.0 129.8Q213.4 128.1 212.1 127.1Q210.9 126.2 209.2 126.2L209.2 126.2Q207.4 126.2 206.1 127.2Q204.9 128.1 204.3 129.8Q203.6 131.6 203.6 133.8L203.6 133.8Q203.6 136.1 204.3 137.9Q204.9 139.6 206.1 140.6Q207.4 141.6 209.2 141.6ZM249.5 128.2L249.5 128.2L242.8 128.6Q242.7 127.8 242.1 127.1Q241.5 126.4 240.6 126.0Q239.7 125.6 238.5 125.6L238.5 125.6Q236.8 125.6 235.6 126.3Q234.4 127.0 234.4 128.1L234.4 128.1Q234.4 129.1 235.2 129.7Q235.9 130.4 237.8 130.8L237.8 130.8L242.5 131.7Q246.3 132.5 248.2 134.2Q250.1 136.0 250.1 138.8L250.1 138.8Q250.1 141.4 248.6 143.3Q247.1 145.3 244.4 146.4Q241.8 147.4 238.4 147.4L238.4 147.4Q233.2 147.4 230.1 145.3Q227.1 143.1 226.5 139.3L226.5 139.3L233.7 139.0Q234.0 140.6 235.3 141.4Q236.5 142.2 238.4 142.2L238.4 142.2Q240.3 142.2 241.5 141.5Q242.7 140.7 242.7 139.5L242.7 139.5Q242.7 138.6 241.9 137.9Q241.0 137.3 239.3 136.9L239.3 136.9L234.8 136.0Q231.0 135.3 229.1 133.4Q227.2 131.5 227.2 128.6L227.2 128.6Q227.2 126.0 228.6 124.2Q230.0 122.4 232.5 121.4Q235.0 120.4 238.3 120.4L238.3 120.4Q243.3 120.4 246.2 122.5Q249.0 124.6 249.5 128.2ZM261.9 131.8L261.9 131.8L261.9 146.9L254.7 146.9L254.7 112.0L261.7 112.0L261.7 125.4L262.0 125.4Q262.9 123.0 264.9 121.7Q266.9 120.4 269.9 120.4L269.9 120.4Q272.6 120.4 274.6 121.6Q276.7 122.8 277.8 125.0Q278.9 127.2 278.9 130.3L278.9 130.3L278.9 146.9L271.6 146.9L271.6 131.6Q271.7 129.1 270.4 127.8Q269.2 126.4 267.0 126.4L267.0 126.4Q265.5 126.4 264.4 127.1Q263.2 127.7 262.6 128.9Q261.9 130.1 261.9 131.8ZM292.1 147.4L292.1 147.4Q289.6 147.4 287.6 146.5Q285.7 145.7 284.5 143.9Q283.4 142.2 283.4 139.6L283.4 139.6Q283.4 137.4 284.2 136.0Q285.0 134.5 286.4 133.6Q287.8 132.7 289.5 132.2Q291.3 131.7 293.2 131.6L293.2 131.6Q295.5 131.3 296.9 131.1Q298.3 130.9 298.9 130.5Q299.6 130.0 299.6 129.2L299.6 129.2L299.6 129.1Q299.6 127.5 298.6 126.6Q297.6 125.7 295.7 125.7L295.7 125.7Q293.7 125.7 292.6 126.6Q291.4 127.4 291.0 128.7L291.0 128.7L284.3 128.2Q284.8 125.8 286.3 124.0Q287.8 122.3 290.2 121.4Q292.6 120.4 295.7 120.4L295.7 120.4Q297.9 120.4 299.9 120.9Q301.9 121.4 303.5 122.5Q305.0 123.6 305.9 125.3Q306.8 126.9 306.8 129.3L306.8 129.3L306.8 146.9L300.0 146.9L300.0 143.3L299.8 143.3Q299.1 144.5 298.1 145.5Q297.0 146.4 295.5 146.9Q294.0 147.4 292.1 147.4ZM294.2 142.4L294.2 142.4Q295.8 142.4 297.0 141.8Q298.2 141.1 298.9 140.0Q299.6 139.0 299.6 137.6L299.6 137.6L299.6 134.8Q299.3 135.0 298.7 135.2Q298.1 135.4 297.4 135.5Q296.6 135.7 295.9 135.8Q295.2 135.9 294.6 136.0L294.6 136.0Q293.3 136.2 292.4 136.6Q291.4 137.0 290.9 137.7Q290.3 138.4 290.3 139.4L290.3 139.4Q290.3 140.9 291.4 141.6Q292.5 142.4 294.2 142.4ZM319.7 146.9L312.5 146.9L312.5 120.7L319.5 120.7L319.5 125.3L319.8 125.3Q320.5 122.9 322.2 121.6Q323.9 120.4 326.1 120.4L326.1 120.4Q326.6 120.4 327.3 120.4Q327.9 120.5 328.4 120.6L328.4 120.6L328.4 127.1Q327.9 126.9 327.0 126.8Q326.1 126.7 325.3 126.7L325.3 126.7Q323.7 126.7 322.4 127.4Q321.2 128.1 320.5 129.3Q319.7 130.5 319.7 132.1L319.7 132.1L319.7 146.9ZM342.8 147.4L342.8 147.4Q338.8 147.4 335.9 145.8Q333.0 144.1 331.4 141.1Q329.8 138.1 329.8 134.0L329.8 134.0Q329.8 129.9 331.4 126.9Q333.0 123.8 335.8 122.1Q338.7 120.4 342.5 120.4L342.5 120.4Q345.1 120.4 347.3 121.2Q349.6 122.1 351.3 123.7Q352.9 125.4 353.9 127.9Q354.8 130.4 354.8 133.7L354.8 133.7L354.8 135.7L332.7 135.7L332.7 131.2L348.0 131.2Q348.0 129.6 347.3 128.4Q346.6 127.2 345.4 126.5Q344.2 125.8 342.6 125.8L342.6 125.8Q341.0 125.8 339.7 126.6Q338.4 127.3 337.7 128.6Q337.0 129.9 337.0 131.4L337.0 131.4L337.0 135.7Q337.0 137.7 337.7 139.1Q338.4 140.5 339.8 141.3Q341.1 142.0 342.9 142.0L342.9 142.0Q344.1 142.0 345.1 141.7Q346.1 141.3 346.9 140.7Q347.6 140.0 348.0 139.0L348.0 139.0L354.7 139.4Q354.2 141.8 352.6 143.6Q351.0 145.4 348.5 146.4Q346.0 147.4 342.8 147.4Z M370.9 112.0L379.1 112.0L387.5 138.5L387.9 138.5L396.3 112.0L404.5 112.0L392.5 146.9L382.9 146.9L370.9 112.0ZM415.8 146.9L408.6 146.9L408.6 120.7L415.8 120.7L415.8 146.9ZM412.2 117.4L412.2 117.4Q410.6 117.4 409.4 116.3Q408.3 115.2 408.3 113.7L408.3 113.7Q408.3 112.2 409.4 111.1Q410.6 110.0 412.2 110.0L412.2 110.0Q413.8 110.0 415.0 111.1Q416.1 112.2 416.1 113.7L416.1 113.7Q416.1 115.2 415.0 116.3Q413.8 117.4 412.2 117.4ZM431.3 147.4L431.3 147.4Q428.3 147.4 425.9 145.8Q423.4 144.3 422.0 141.3Q420.6 138.3 420.6 133.9L420.6 133.9Q420.6 129.4 422.1 126.4Q423.5 123.4 425.9 121.9Q428.4 120.4 431.2 120.4L431.2 120.4Q433.4 120.4 434.9 121.1Q436.4 121.9 437.3 123.0Q438.2 124.1 438.7 125.1L438.7 125.1L438.9 125.1L438.9 112.0L446.2 112.0L446.2 146.9L439.0 146.9L439.0 142.7L438.7 142.7Q438.2 143.8 437.2 144.9Q436.3 146.0 434.8 146.7Q433.4 147.4 431.3 147.4ZM433.6 141.6L433.6 141.6Q435.3 141.6 436.5 140.6Q437.8 139.6 438.4 137.9Q439.1 136.2 439.1 133.8L439.1 133.8Q439.1 131.5 438.4 129.8Q437.8 128.1 436.5 127.1Q435.3 126.2 433.6 126.2L433.6 126.2Q431.8 126.2 430.5 127.2Q429.3 128.1 428.7 129.8Q428.1 131.6 428.1 133.8L428.1 133.8Q428.1 136.1 428.7 137.9Q429.3 139.6 430.5 140.6Q431.8 141.6 433.6 141.6ZM464.0 147.4L464.0 147.4Q460.0 147.4 457.1 145.8Q454.2 144.1 452.6 141.1Q451.0 138.1 451.0 134.0L451.0 134.0Q451.0 129.9 452.6 126.9Q454.2 123.8 457.0 122.1Q459.9 120.4 463.7 120.4L463.7 120.4Q466.3 120.4 468.6 121.2Q470.8 122.1 472.5 123.7Q474.2 125.4 475.1 127.9Q476.1 130.4 476.1 133.7L476.1 133.7L476.1 135.7L453.9 135.7L453.9 131.2L469.2 131.2Q469.2 129.6 468.5 128.4Q467.9 127.2 466.7 126.5Q465.4 125.8 463.9 125.8L463.9 125.8Q462.2 125.8 460.9 126.6Q459.7 127.3 459.0 128.6Q458.2 129.9 458.2 131.4L458.2 131.4L458.2 135.7Q458.2 137.7 458.9 139.1Q459.7 140.5 461 141.3Q462.3 142.0 464.2 142.0L464.2 142.0Q465.4 142.0 466.4 141.7Q467.4 141.3 468.1 140.7Q468.8 140.0 469.2 139.0L469.2 139.0L475.9 139.4Q475.4 141.8 473.8 143.6Q472.2 145.4 469.8 146.4Q467.3 147.4 464.0 147.4ZM492.6 147.4L492.6 147.4Q488.6 147.4 485.8 145.7Q482.9 144.0 481.3 141.0Q479.7 138.0 479.7 133.9L479.7 133.9Q479.7 129.9 481.3 126.8Q482.9 123.8 485.8 122.1Q488.6 120.4 492.6 120.4L492.6 120.4Q496.6 120.4 499.5 122.1Q502.4 123.8 503.9 126.8Q505.5 129.9 505.5 133.9L505.5 133.9Q505.5 138.0 503.9 141.0Q502.4 144.0 499.5 145.7Q496.6 147.4 492.6 147.4ZM492.7 141.8L492.7 141.8Q494.5 141.8 495.7 140.8Q496.9 139.8 497.5 138.0Q498.1 136.2 498.1 133.9L498.1 133.9Q498.1 131.6 497.5 129.8Q496.9 128.0 495.7 127.0Q494.5 125.9 492.7 125.9L492.7 125.9Q490.8 125.9 489.6 127.0Q488.4 128.0 487.7 129.8Q487.1 131.6 487.1 133.9L487.1 133.9Q487.1 136.2 487.7 138.0Q488.4 139.8 489.6 140.8Q490.8 141.8 492.7 141.8Z " style="filter:drop-shadow()"/><path fill="black" d="M92.8 519.0L88.0 519.0L88.0 495.7L92.9 495.7L92.9 504.4L93.0 504.4Q93.3 503.7 93.9 503.0Q94.5 502.3 95.5 501.8Q96.5 501.3 98.0 501.3L98.0 501.3Q99.9 501.3 101.5 502.3Q103.1 503.3 104.1 505.3Q105.0 507.2 105.0 510.2L105.0 510.2Q105.0 513.2 104.1 515.2Q103.2 517.2 101.6 518.2Q100.0 519.2 98.0 519.2L98.0 519.2Q96.6 519.2 95.6 518.8Q94.6 518.3 94.0 517.6Q93.3 516.9 93.0 516.2L93.0 516.2L92.8 516.2L92.8 519.0ZM92.8 510.2L92.8 510.2Q92.8 511.8 93.2 512.9Q93.6 514.1 94.4 514.7Q95.3 515.4 96.4 515.4L96.4 515.4Q97.6 515.4 98.4 514.7Q99.3 514.1 99.7 512.9Q100.1 511.7 100.1 510.2L100.1 510.2Q100.1 508.7 99.7 507.6Q99.3 506.4 98.4 505.8Q97.6 505.1 96.4 505.1L96.4 505.1Q95.3 505.1 94.4 505.7Q93.6 506.4 93.2 507.5Q92.8 508.7 92.8 510.2ZM108.3 495.7L113.1 495.7L113.1 519.0L108.3 519.0L108.3 495.7ZM124.9 519.3L124.9 519.3Q122.2 519.3 120.3 518.2Q118.4 517.0 117.3 515.0Q116.3 513.0 116.3 510.3L116.3 510.3Q116.3 507.6 117.3 505.6Q118.4 503.5 120.3 502.4Q122.2 501.3 124.9 501.3L124.9 501.3Q127.5 501.3 129.4 502.4Q131.4 503.5 132.4 505.6Q133.4 507.6 133.4 510.3L133.4 510.3Q133.4 513.0 132.4 515.0Q131.4 517.0 129.4 518.2Q127.5 519.3 124.9 519.3ZM124.9 515.5L124.9 515.5Q126.1 515.5 126.9 514.9Q127.7 514.2 128.1 513.0Q128.5 511.8 128.5 510.3L128.5 510.3Q128.5 508.7 128.1 507.5Q127.7 506.3 126.9 505.7Q126.1 505.0 124.9 505.0L124.9 505.0Q123.7 505.0 122.8 505.7Q122.0 506.3 121.6 507.5Q121.2 508.7 121.2 510.3L121.2 510.3Q121.2 511.8 121.6 513.0Q122.0 514.2 122.8 514.9Q123.7 515.5 124.9 515.5ZM144.5 525.9L144.5 525.9Q142.1 525.9 140.4 525.2Q138.8 524.6 137.8 523.5Q136.8 522.4 136.5 521.0L136.5 521.0L141.0 520.4Q141.2 520.9 141.6 521.4Q142.1 521.8 142.8 522.1Q143.5 522.4 144.6 522.4L144.6 522.4Q146.2 522.4 147.2 521.6Q148.2 520.8 148.2 519.1L148.2 519.1L148.2 515.9L148.0 515.9Q147.7 516.6 147.1 517.2Q146.4 517.9 145.4 518.3Q144.4 518.7 143.0 518.7L143.0 518.7Q141.1 518.7 139.5 517.8Q137.9 516.9 136.9 515.0Q136.0 513.1 136.0 510.2L136.0 510.2Q136.0 507.2 136.9 505.2Q137.9 503.2 139.5 502.3Q141.1 501.3 143.0 501.3L143.0 501.3Q144.5 501.3 145.5 501.8Q146.5 502.3 147.1 503.0Q147.7 503.7 148.0 504.4L148.0 504.4L148.2 504.4L148.2 501.5L153 501.5L153 519.1Q153 521.3 151.9 522.8Q150.8 524.3 148.9 525.1Q147.0 525.9 144.5 525.9ZM144.6 515.1L144.6 515.1Q145.7 515.1 146.6 514.5Q147.4 513.9 147.8 512.8Q148.2 511.7 148.2 510.2L148.2 510.2Q148.2 508.6 147.8 507.5Q147.4 506.4 146.6 505.7Q145.7 505.1 144.6 505.1L144.6 505.1Q143.4 505.1 142.6 505.8Q141.7 506.4 141.3 507.5Q140.9 508.7 140.9 510.2L140.9 510.2Q140.9 511.7 141.3 512.8Q141.8 513.9 142.6 514.5Q143.4 515.1 144.6 515.1ZM161.7 525.5L156.9 525.5L156.9 501.5L161.6 501.5L161.6 504.4L161.9 504.4Q162.2 503.7 162.8 503.0Q163.4 502.3 164.4 501.8Q165.4 501.3 166.8 501.3L166.8 501.3Q168.7 501.3 170.3 502.3Q172.0 503.3 172.9 505.3Q173.9 507.2 173.9 510.2L173.9 510.2Q173.9 513.2 172.9 515.2Q172.0 517.2 170.4 518.2Q168.8 519.2 166.8 519.2L166.8 519.2Q165.4 519.2 164.4 518.8Q163.4 518.3 162.8 517.6Q162.2 516.9 161.9 516.2L161.9 516.2L161.7 516.2L161.7 525.5ZM161.6 510.2L161.6 510.2Q161.6 511.8 162.0 512.9Q162.5 514.1 163.3 514.7Q164.1 515.4 165.3 515.4L165.3 515.4Q166.5 515.4 167.3 514.7Q168.1 514.1 168.5 512.9Q168.9 511.7 168.9 510.2L168.9 510.2Q168.9 508.7 168.5 507.6Q168.1 506.4 167.3 505.8Q166.5 505.1 165.3 505.1L165.3 505.1Q164.1 505.1 163.3 505.7Q162.5 506.4 162.0 507.5Q161.6 508.7 161.6 510.2ZM185.0 519.3L185.0 519.3Q182.3 519.3 180.4 518.2Q178.5 517.0 177.4 515.0Q176.4 513.0 176.4 510.3L176.4 510.3Q176.4 507.6 177.4 505.6Q178.5 503.5 180.4 502.4Q182.3 501.3 185.0 501.3L185.0 501.3Q187.6 501.3 189.6 502.4Q191.5 503.5 192.5 505.6Q193.6 507.6 193.6 510.3L193.6 510.3Q193.6 513.0 192.5 515.0Q191.5 517.0 189.6 518.2Q187.6 519.3 185.0 519.3ZM185.0 515.5L185.0 515.5Q186.2 515.5 187.0 514.9Q187.8 514.2 188.2 513.0Q188.7 511.8 188.7 510.3L188.7 510.3Q188.7 508.7 188.2 507.5Q187.8 506.3 187.0 505.7Q186.2 505.0 185.0 505.0L185.0 505.0Q183.8 505.0 183.0 505.7Q182.1 506.3 181.7 507.5Q181.3 508.7 181.3 510.3L181.3 510.3Q181.3 511.8 181.7 513.0Q182.1 514.2 183.0 514.9Q183.8 515.5 185.0 515.5ZM211.3 506.5L211.3 506.5L206.8 506.7Q206.7 506.2 206.3 505.7Q206.0 505.3 205.4 505.0Q204.7 504.7 203.9 504.7L203.9 504.7Q202.8 504.7 202.0 505.2Q201.2 505.6 201.2 506.4L201.2 506.4Q201.2 507.1 201.7 507.5Q202.2 507.9 203.5 508.2L203.5 508.2L206.6 508.8Q209.2 509.3 210.4 510.5Q211.7 511.7 211.7 513.5L211.7 513.5Q211.7 515.3 210.7 516.6Q209.6 517.8 207.9 518.6Q206.2 519.3 203.9 519.3L203.9 519.3Q200.4 519.3 198.4 517.8Q196.3 516.4 196.0 513.9L196.0 513.9L200.7 513.6Q200.9 514.7 201.8 515.3Q202.6 515.8 203.9 515.8L203.9 515.8Q205.2 515.8 205.9 515.3Q206.7 514.8 206.7 514.0L206.7 514.0Q206.7 513.4 206.2 512.9Q205.6 512.5 204.5 512.3L204.5 512.3L201.5 511.7Q198.9 511.2 197.7 509.9Q196.4 508.7 196.4 506.7L196.4 506.7Q196.4 505.0 197.3 503.8Q198.3 502.6 199.9 501.9Q201.6 501.3 203.8 501.3L203.8 501.3Q207.1 501.3 209.0 502.7Q210.9 504.1 211.3 506.5ZM213.5 501.5L224.0 501.5L224.0 505.1L213.5 505.1L213.5 501.5ZM215.9 514.2L215.9 497.3L220.7 497.3L220.7 513.6Q220.7 514.3 220.9 514.6Q221.1 515.0 221.5 515.1Q221.9 515.3 222.4 515.3L222.4 515.3Q222.7 515.3 223.0 515.2Q223.4 515.2 223.6 515.1L223.6 515.1L224.3 518.7Q224.0 518.8 223.3 519.0Q222.6 519.2 221.7 519.2L221.7 519.2Q219.9 519.3 218.6 518.7Q217.3 518.2 216.6 517.1Q215.9 515.9 215.9 514.2L215.9 514.2ZM226.9 507.5L237.5 507.5L237.5 511.3L226.9 511.3L226.9 507.5ZM250.0 519.3L250.0 519.3Q247.5 519.3 245.5 518.4Q243.5 517.5 242.4 516.0Q241.2 514.4 241.2 512.4L241.2 512.4L246.2 512.4Q246.2 513.2 246.7 513.9Q247.2 514.5 248.1 514.9Q249.0 515.2 250.0 515.2L250.0 515.2Q251.2 515.2 252.0 514.8Q252.9 514.4 253.4 513.7Q253.9 513.0 253.9 512.1L253.9 512.1Q253.9 511.2 253.4 510.4Q252.8 509.7 251.9 509.3Q250.9 508.9 249.6 508.9L249.6 508.9L247.4 508.9L247.4 505.3L249.6 505.3Q250.7 505.3 251.6 504.9Q252.4 504.5 252.9 503.8Q253.4 503.1 253.4 502.2L253.4 502.2Q253.4 501.3 253.0 500.7Q252.6 500.0 251.8 499.6Q251.1 499.3 250.1 499.3L250.1 499.3Q249.1 499.3 248.2 499.6Q247.4 500.0 246.9 500.6Q246.4 501.3 246.4 502.2L246.4 502.2L241.7 502.2Q241.7 500.2 242.8 498.6Q243.9 497.1 245.8 496.2Q247.7 495.4 250.1 495.4L250.1 495.4Q252.5 495.4 254.3 496.2Q256.1 497.1 257.1 498.6Q258.1 500.1 258.1 501.9L258.1 501.9Q258.1 503.9 256.9 505.2Q255.7 506.5 253.7 506.8L253.7 506.8L253.7 507.0Q256.3 507.3 257.7 508.8Q259.0 510.2 259.0 512.4L259.0 512.4Q259.0 514.4 257.8 516.0Q256.7 517.5 254.7 518.4Q252.6 519.3 250.0 519.3Z " style="filter:drop-shadow()"/><defs><clipPath id="satori_bc-id-0-0-0-1-1"><path x="914" y="328" width="200" height="200" d="M922,328 h184 a8,8 0 0 1 8,8 v184 a8,8 0 0 1 -8,8 h-184 a8,8 0 0 1 -8,-8 v-184 a8,8 0 0 1 8,-8"/></clipPath></defs><path width="200" height="200" clip-path="url(#satori_bc-id-0-0-0-1-1)" fill="none" stroke="black" stroke-width="6" d="M916.343,330.343 A8,8 0 0 1 922,328 h184 a8,8 0 0 1 8,8 v184 a8,8 0 0 1 -8,8 h-184 a8,8 0 0 1 -8,-8 v-184 A8,8 0 0 1 916.343,330.343"/></svg>