<svg width="1200" height="630" viewBox="0 0 1200 630" xmlns="http://www.w3.org/2000/svg"><rect x="0" y="0" width="1200" height="630" fill="#818cf8"/><defs><clipPath id="satori_bc-id-0-0"><path x="48" y="48" width="1104" height="534" d="M56,48 h1088 a8,8 0 0 1 8,8 v518 a8,8 0 0 1 -8,8 h-1088 a8,8 0 0 1 -8,-8 v-518 a8,8 0 0 1 8,-8"/></clipPath></defs><path x="48" y="48" width="1104" height="534" fill="white" d="M56,48 h1088 a8,8 0 0 1 8,8 v518 a8,8 0 0 1 -8,8 h-1088 a8,8 0 0 1 -8,-8 v-518 a8,8 0 0 1 8,-8" style="filter:drop-shadow(6px 6px 0 rgba(0, 0, 0, 1))"/><path width="1104" height="534" clip-path="url(#satori_bc-id-0-0)" fill="none" stroke="black" stroke-width="12" d="M50.343,50.343 A8,8 0 0 1 56,48 h1088 a8,8 0 0 1 8,8 v518 a8,8 0 0 1 -8,8 h-1088 a8,8 0 0 1 -8,-8 v-518 A8,8 0 0 1 50.343,50.343"/><path fill="black" d="M101.4 146.9L101.4 146.9L89.0 146.9L89.0 112.0L101.5 112.0Q106.8 112.0 110.6 114.1Q114.4 116.2 116.4 120.1Q118.5 124.0 118.5 129.4L118.5 129.4Q118.5 134.9 116.4 138.8Q114.4 142.7 110.6 144.8Q106.7 146.9 101.4 146.9ZM96.4 118.3L96.4 140.6L101.1 140.6Q104.4 140.6 106.6 139.4Q108.9 138.3 110.0 135.8Q111.1 133.3 111.1 129.4L111.1 129.4Q111.1 125.6 110.0 123.1Q108.9 120.7 106.6 119.5Q104.4 118.3 101.1 118.3L101.1 118.3L96.4 118.3ZM131.3 147.4L131.3 147.4Q128.8 147.4 126.8 146.5Q124.8 145.7 123.7 143.9Q122.6 142.2 122.6 139.6L122.6 139.6Q122.6 137.4 123.4 136.0Q124.2 134.5 125.6 133.6Q126.9 132.7 128.7 132.2Q130.5 131.7 132.4 131.6L132.4 131.6Q134.7 131.3 136.1 131.1Q137.5 130.9 138.1 130.5Q138.8 130.0 138.8 129.2L138.8 129.2L138.8 129.1Q138.8 127.5 137.7 126.6Q136.7 125.7 134.9 125.7L134.9 125.7Q132.9 125.7 131.8 126.6Q130.6 127.4 130.2 128.7L130.2 128.7L123.5 128.2Q124.0 125.8 125.5 124.0Q127.0 122.3 129.4 121.4Q131.8 120.4 134.9 120.4L134.9 120.4Q137.1 120.4 139.1 120.9Q141.1 121.4 142.7 122.5Q144.2 123.6 145.1 125.3Q146.0 126.9 146.0 129.3L146.0 129.3L146.0 146.9L139.1 146.9L139.1 143.3L138.9 143.3Q138.3 144.5 137.2 145.5Q136.2 146.4 134.7 146.9Q133.2 147.4 131.3 147.4ZM133.4 142.4L133.4 142.4Q135.0 142.4 136.2 141.8Q137.4 141.1 138.1 140.0Q138.8 139.0 138.8 137.6L138.8 137.6L138.8 134.8Q138.5 135.0 137.9 135.2Q137.3 135.4 136.6 135.5Q135.8 135.7 135.1 135.8Q134.4 135.9 133.8 136.0L133.8 136.0Q132.5 136.2 131.5 136.6Q130.6 137.0 130.0 137.7Q129.5 138.4 129.5 139.4L129.5 139.4Q129.5 140.9 130.6 141.6Q131.7 142.4 133.4 142.4ZM173.4 128.2L173.4 128.2L166.8 128.6Q166.6 127.8 166.1 127.1Q165.5 126.4 164.6 126.0Q163.7 125.6 162.4 125.6L162.4 125.6Q160.7 125.6 159.6 126.3Q158.4 127.0 158.4 128.1L158.4 128.1Q158.4 129.1 159.2 129.7Q159.9 130.4 161.7 130.8L161.7 130.8L166.5 131.7Q170.3 132.5 172.2 134.2Q174.0 136.0 174.0 138.8L174.0 138.8Q174.0 141.4 172.5 143.3Q171.0 145.3 168.4 146.4Q165.8 147.4 162.4 147.4L162.4 147.4Q157.2 147.4 154.1 145.3Q151.0 143.1 150.5 139.3L150.5 139.3L157.6 139.0Q158.0 140.6 159.2 141.4Q160.5 142.2 162.4 142.2L162.4 142.2Q164.3 142.2 165.5 141.5Q166.6 140.7 166.7 139.5L166.7 139.5Q166.6 138.6 165.8 137.9Q165.0 137.3 163.3 136.9L163.3 136.9L158.8 136.0Q154.9 135.3 153.1 133.4Q151.2 131.5 151.2 128.6L151.2 128.6Q151.2 126.0 152.6 124.2Q153.9 122.4 156.4 121.4Q158.9 120.4 162.3 120.4L162.3 120.4Q167.3 120.4 170.1 122.5Q173.0 124.6 173.4 128.2ZM185.9 131.8L185.9 131.8L185.9 146.9L178.6 146.9L178.6 112.0L185.7 112.0L185.7 125.4L186.0 125.4Q186.9 123.0 188.9 121.7Q190.8 120.4 193.8 120.4L193.8 120.4Q196.5 120.4 198.6 121.6Q200.6 122.8 201.7 125.0Q202.9 127.2 202.9 130.3L202.9 130.3L202.9 146.9L195.6 146.9L195.6 131.6Q195.6 129.1 194.4 127.8Q193.1 126.4 190.9 126.4L190.9 126.4Q189.4 126.4 188.3 127.1Q187.2 127.7 186.5 128.9Q185.9 130.1 185.9 131.8ZM215.9 146.9L208.7 146.9L208.7 112.0L216.0 112.0L216.0 125.1L216.2 125.1Q216.7 124.1 217.6 123.0Q218.5 121.9 220.0 121.1Q221.5 120.4 223.7 120.4L223.7 120.4Q226.5 120.4 228.9 121.9Q231.4 123.4 232.8 126.4Q234.3 129.4 234.3 133.9L234.3 133.9Q234.3 138.3 232.9 141.3Q231.4 144.3 229.0 145.8Q226.6 147.4 223.6 147.4L223.6 147.4Q221.5 147.4 220.1 146.7Q218.6 146.0 217.6 144.9Q216.7 143.8 216.2 142.7L216.2 142.7L215.9 142.7L215.9 146.9ZM215.8 133.8L215.8 133.8Q215.8 136.2 216.5 137.9Q217.1 139.6 218.4 140.6Q219.6 141.6 221.3 141.6L221.3 141.6Q223.1 141.6 224.3 140.6Q225.6 139.6 226.2 137.9Q226.8 136.1 226.8 133.8L226.8 133.8Q226.8 131.6 226.2 129.8Q225.6 128.1 224.4 127.2Q223.1 126.2 221.3 126.2L221.3 126.2Q219.6 126.2 218.3 127.1Q217.1 128.1 216.5 129.8Q215.8 131.5 215.8 133.8ZM250.9 147.4L250.9 147.4Q246.9 147.4 244.1 145.7Q241.2 144.0 239.6 141.0Q238.0 138.0 238.0 133.9L238.0 133.9Q238.0 129.9 239.6 126.8Q241.2 123.8 244.1 122.1Q246.9 120.4 250.9 120.4L250.9 120.4Q254.9 120.4 257.8 122.1Q260.7 123.8 262.2 126.8Q263.8 129.9 263.8 133.9L263.8 133.9Q263.8 138.0 262.2 141.0Q260.7 144.0 257.8 145.7Q254.9 147.4 250.9 147.4ZM250.9 141.8L250.9 141.8Q252.8 141.8 254.0 140.8Q255.2 139.8 255.8 138.0Q256.4 136.2 256.4 133.9L256.4 133.9Q256.4 131.6 255.8 129.8Q255.2 128.0 254.0 127.0Q252.8 125.9 250.9 125.9L250.9 125.9Q249.1 125.9 247.9 127.0Q246.7 128.0 246.0 129.8Q245.4 131.6 245.4 133.9L245.4 133.9Q245.4 136.2 246.0 138.0Q246.7 139.8 247.9 140.8Q249.1 141.8 250.9 141.8ZM276.0 147.4L276.0 147.4Q273.5 147.4 271.5 146.5Q269.6 145.7 268.4 143.9Q267.3 142.2 267.3 139.6L267.3 139.6Q267.3 137.4 268.1 136.0Q268.9 134.5 270.3 133.6Q271.7 132.7 273.4 132.2Q275.2 131.7 277.1 131.6L277.1 131.6Q279.4 131.3 280.8 131.1Q282.2 130.9 282.9 130.5Q283.5 130.0 283.5 129.2L283.5 129.2L283.5 129.1Q283.5 127.5 282.5 126.6Q281.5 125.7 279.6 125.7L279.6 125.7Q277.6 125.7 276.5 126.6Q275.3 127.4 274.9 128.7L274.9 128.7L268.2 128.2Q268.7 125.8 270.2 124.0Q271.7 122.3 274.1 121.4Q276.5 120.4 279.6 120.4L279.6 120.4Q281.8 120.4 283.8 120.9Q285.8 121.4 287.4 122.5Q288.9 123.6 289.8 125.3Q290.8 126.9 290.8 129.3L290.8 129.3L290.8 146.9L283.9 146.9L283.9 143.3L283.7 143.3Q283.0 144.5 282.0 145.5Q280.9 146.4 279.4 146.9Q277.9 147.4 276.0 147.4ZM278.1 142.4L278.1 142.4Q279.7 142.4 280.9 141.8Q282.1 141.1 282.8 140.0Q283.5 139.0 283.5 137.6L283.5 137.6L283.5 134.8Q283.2 135.0 282.6 135.2Q282.0 135.4 281.3 135.5Q280.6 135.7 279.8 135.8Q279.1 135.9 278.5 136.0L278.5 136.0Q277.2 136.2 276.3 136.6Q275.3 137.0 274.8 137.7Q274.3 138.4 274.3 139.4L274.3 139.4Q274.3 140.9 275.3 141.6Q276.4 142.4 278.1 142.4ZM303.7 146.9L296.4 146.9L296.4 120.7L303.4 120.7L303.4 125.3L303.7 125.3Q304.4 122.9 306.1 121.6Q307.8 120.4 310.0 120.4L310.0 120.4Q310.5 120.4 311.2 120.4Q311.8 120.5 312.3 120.6L312.3 120.6L312.3 127.1Q311.8 126.9 310.9 126.8Q310.0 126.7 309.2 126.7L309.2 126.7Q307.6 126.7 306.4 127.4Q305.1 128.1 304.4 129.3Q303.7 130.5 303.7 132.1L303.7 132.1L303.7 146.9ZM324.4 147.4L324.4 147.4Q321.4 147.4 319.0 145.8Q316.6 144.3 315.2 141.3Q313.8 138.3 313.8 133.9L313.8 133.9Q313.8 129.4 315.3 126.4Q316.7 123.4 319.1 121.9Q321.5 120.4 324.4 120.4L324.4 120.4Q326.6 120.4 328.1 121.1Q329.6 121.9 330.5 123.0Q331.4 124.1 331.9 125.1L331.9 125.1L332.1 125.1L332.1 112.0L339.3 112.0L339.3 146.9L332.2 146.9L332.2 142.7L331.9 142.7Q331.4 143.8 330.4 144.9Q329.5 146.0 328.0 146.7Q326.5 147.4 324.4 147.4ZM326.7 141.6L326.7 141.6Q328.5 141.6 329.7 140.6Q330.9 139.6 331.6 137.9Q332.2 136.2 332.2 133.8L332.2 133.8Q332.2 131.5 331.6 129.8Q330.9 128.1 329.7 127.1Q328.5 126.2 326.7 126.2L326.7 126.2Q324.9 126.2 323.7 127.2Q322.5 128.1 321.9 129.8Q321.2 131.6 321.2 133.8L321.2 133.8Q321.2 136.1 321.9 137.9Q322.5 139.6 323.7 140.6Q324.9 141.6 326.7 141.6Z " style="filter:drop-shadow()"/><path fill="black" d="M92.8 519.0L88.0 519.0L88.0 495.7L92.9 495.7L92.9 504.4L93.0 504.4Q93.3 503.7 93.9 503.0Q94.5 502.3 95.5 501.8Q96.5 501.3 98.0 501.3L98.0 501.3Q99.9 501.3 101.5 502.3Q103.1 503.3 104.1 505.3Q105.0 507.2 105.0 510.2L105.0 510.2Q105.0 513.2 104.1 515.2Q103.2 517.2 101.6 518.2Q100.0 519.2 98.0 519.2L98.0 519.2Q96.6 519.2 95.6 518.8Q94.6 518.3 94.0 517.6Q93.3 516.9 93.0 516.2L93.0 516.2L92.8 516.2L92.8 519.0ZM92.8 510.2L92.8 510.2Q92.8 511.8 93.2 512.9Q93.6 514.1 94.4 514.7Q95.3 515.4 96.4 515.4L96.4 515.4Q97.6 515.4 98.4 514.7Q99.3 514.1 99.7 512.9Q100.1 511.7 100.1 510.2L100.1 510.2Q100.1 508.7 99.7 507.6Q99.3 506.4 98.4 505.8Q97.6 505.1 96.4 505.1L96.4 505.1Q95.3 505.1 94.4 505.7Q93.6 506.4 93.2 507.5Q92.8 508.7 92.8 510.2ZM108.3 495.7L113.1 495.7L113.1 519.0L108.3 519.0L108.3 495.7ZM124.9 519.3L124.9 519.3Q122.2 519.3 120.3 518.2Q118.4 517.0 117.3 515.0Q116.3 513.0 116.3 510.3L116.3 510.3Q116.3 507.6 117.3 505.6Q118.4 503.5 120.3 502.4Q122.2 501.3 124.9 501.3L124.9 501.3Q127.5 501.3 129.4 502.4Q131.4 503.5 132.4 505.6Q133.4 507.6 133.4 510.3L133.4 510.3Q133.4 513.0 132.4 515.0Q131.4 517.0 129.4 518.2Q127.5 519.3 124.9 519.3ZM124.9 515.5L124.9 515.5Q126.1 515.5 126.9 514.9Q127.7 514.2 128.1 513.0Q128.5 511.8 128.5 510.3L128.5 510.3Q128.5 508.7 128.1 507.5Q127.7 506.3 126.9 505.7Q126.1 505.0 124.9 505.0L124.9 505.0Q123.7 505.0 122.8 505.7Q122.0 506.3 121.6 507.5Q121.2 508.7 121.2 510.3L121.2 510.3Q121.2 511.8 121.6 513.0Q122.0 514.2 122.8 514.9Q123.7 515.5 124.9 515.5ZM144.5 525.9L144.5 525.9Q142.1 525.9 140.4 525.2Q138.8 524.6 137.8 523.5Q136.8 522.4 136.5 521.0L136.5 521.0L141.0 520.4Q141.2 520.9 141.6 521.4Q142.1 521.8 142.8 522.1Q143.5 522.4 144.6 522.4L144.6 522.4Q146.2 522.4 147.2 521.6Q148.2 520.8 148.2 519.1L148.2 519.1L148.2 515.9L148.0 515.9Q147.7 516.6 147.1 517.2Q146.4 517.9 145.4 518.3Q144.4 518.7 143.0 518.7L143.0 518.7Q141.1 518.7 139.5 517.8Q137.9 516.9 136.9 515.0Q136.0 513.1 136.0 510.2L136.0 510.2Q136.0 507.2 136.9 505.2Q137.9 503.2 139.5 502.3Q141.1 501.3 143.0 501.3L143.0 501.3Q144.5 501.3 145.5 501.8Q146.5 502.3 147.1 503.0Q147.7 503.7 148.0 504.4L148.0 504.4L148.2 504.4L148.2 501.5L153 501.5L153 519.1Q153 521.3 151.9 522.8Q150.8 524.3 148.9 525.1Q147.0 525.9 144.5 525.9ZM144.6 515.1L144.6 515.1Q145.7 515.1 146.6 514.5Q147.4 513.9 147.8 512.8Q148.2 511.7 148.2 510.2L148.2 510.2Q148.2 508.6 147.8 507.5Q147.4 506.4 146.6 505.7Q145.7 505.1 144.6 505.1L144.6 505.1Q143.4 505.1 142.6 505.8Q141.7 506.4 141.3 507.5Q140.9 508.7 140.9 510.2L140.9 510.2Q140.9 511.7 141.3 512.8Q141.8 513.9 142.6 514.5Q143.4 515.1 144.6 515.1ZM161.7 525.5L156.9 525.5L156.9 501.5L161.6 501.5L161.6 504.4L161.9 504.4Q162.2 503.7 162.8 503.0Q163.4 502.3 164.4 501.8Q165.4 501.3 166.8 501.3L166.8 501.3Q168.7 501.3 170.3 502.3Q172.0 503.3 172.9 505.3Q173.9 507.2 173.9 510.2L173.9 510.2Q173.9 513.2 172.9 515.2Q172.0 517.2 170.4 518.2Q168.8 519.2 166.8 519.2L166.8 519.2Q165.4 519.2 164.4 518.8Q163.4 518.3 162.8 517.6Q162.2 516.9 161.9 516.2L161.9 516.2L161.7 516.2L161.7 525.5ZM161.6 510.2L161.6 510.2Q161.6 511.8 162.0 512.9Q162.5 514.1 163.3 514.7Q164.1 515.4 165.3 515.4L165.3 515.4Q166.5 515.4 167.3 514.7Q168.1 514.1 168.5 512.9Q168.9 511.7 168.9 510.2L168.9 510.2Q168.9 508.7 168.5 507.6Q168.1 506.4 167.3 505.8Q166.5 505.1 165.3 505.1L165.3 505.1Q164.1 505.1 163.3 505.7Q162.5 506.4 162.0 507.5Q161.6 508.7 161.6 510.2ZM185.0 519.3L185.0 519.3Q182.3 519.3 180.4 518.2Q178.5 517.0 177.4 515.0Q176.4 513.0 176.4 510.3L176.4 510.3Q176.4 507.6 177.4 505.6Q178.5 503.5 180.4 502.4Q182.3 501.3 185.0 501.3L185.0 501.3Q187.6 501.3 189.6 502.4Q191.5 503.5 192.5 505.6Q193.6 507.6 193.6 510.3L193.6 510.3Q193.6 513.0 192.5 515.0Q191.5 517.0 189.6 518.2Q187.6 519.3 185.0 519.3ZM185.0 515.5L185.0 515.5Q186.2 515.5 187.0 514.9Q187.8 514.2 188.2 513.0Q188.7 511.8 188.7 510.3L188.7 510.3Q188.7 508.7 188.2 507.5Q187.8 506.3 187.0 505.7Q186.2 505.0 185.0 505.0L185.0 505.0Q183.8 505.0 183.0 505.7Q182.1 506.3 181.7 507.5Q181.3 508.7 181.3 510.3L181.3 510.3Q181.3 511.8 181.7 513.0Q182.1 514.2 183.0 514.9Q183.8 515.5 185.0 515.5ZM211.3 506.5L211.3 506.5L206.8 506.7Q206.7 506.2 206.3 505.7Q206.0 505.3 205.4 505.0Q204.7 504.7 203.9 504.7L203.9 504.7Q202.8 504.7 202.0 505.2Q201.2 505.6 201.2 506.4L201.2 506.4Q201.2 507.1 201.7 507.5Q202.2 507.9 203.5 508.2L203.5 508.2L206.6 508.8Q209.2 509.3 210.4 510.5Q211.7 511.7 211.7 513.5L211.7 513.5Q211.7 515.3 210.7 516.6Q209.6 517.8 207.9 518.6Q206.2 519.3 203.9 519.3L203.9 519.3Q200.4 519.3 198.4 517.8Q196.3 516.4 196.0 513.9L196.0 513.9L200.7 513.6Q200.9 514.7 201.8 515.3Q202.6 515.8 203.9 515.8L203.9 515.8Q205.2 515.8 205.9 515.3Q206.7 514.8 206.7 514.0L206.7 514.0Q206.7 513.4 206.2 512.9Q205.6 512.5 204.5 512.3L204.5 512.3L201.5 511.7Q198.9 511.2 197.7 509.9Q196.4 508.7 196.4 506.7L196.4 506.7Q196.4 505.0 197.3 503.8Q198.3 502.6 199.9 501.9Q201.6 501.3 203.8 501.3L203.8 501.3Q207.1 501.3 209.0 502.7Q210.9 504.1 211.3 506.5ZM213.5 501.5L224.0 501.5L224.0 505.1L213.5 505.1L213.5 501.5ZM215.9 514.2L215.9 497.3L220.7 497.3L220.7 513.6Q220.7 514.3 220.9 514.6Q221.1 515.0 221.5 515.1Q221.9 515.3 222.4 515.3L222.4 515.3Q222.7 515.3 223.0 515.2Q223.4 515.2 223.6 515.1L223.6 515.1L224.3 518.7Q224.0 518.8 223.3 519.0Q222.6 519.2 221.7 519.2L221.7 519.2Q219.9 519.3 218.6 518.7Q217.3 518.2 216.6 517.1Q215.9 515.9 215.9 514.2L215.9 514.2ZM226.9 507.5L237.5 507.5L237.5 511.3L226.9 511.3L226.9 507.5ZM250.1 519.3L250.1 519.3Q247.7 519.3 245.8 518.4Q243.9 517.5 242.8 515.9Q241.7 514.4 241.7 512.4L241.7 512.4L246.4 512.4Q246.5 513.7 247.6 514.6Q248.6 515.4 250.1 515.4L250.1 515.4Q251.2 515.4 252.1 514.9Q253.0 514.4 253.5 513.4Q254.0 512.5 254.0 511.3L254.0 511.3Q254.0 510.1 253.5 509.2Q253.0 508.2 252.1 507.7Q251.2 507.2 250.0 507.2L250.0 507.2Q249.0 507.2 248.0 507.6Q247.1 508.0 246.5 508.7L246.5 508.7L242.2 508.0L243.3 495.7L257.5 495.7L257.5 499.7L247.3 499.7L246.7 505.5L246.9 505.5Q247.5 504.7 248.7 504.1Q249.9 503.5 251.5 503.5L251.5 503.5Q253.6 503.5 255.2 504.5Q256.9 505.5 257.8 507.2Q258.8 509.0 258.8 511.2L258.8 511.2Q258.8 513.5 257.7 515.4Q256.6 517.2 254.6 518.2Q252.7 519.3 250.1 519.3Z " style="filter:drop-shadow()"/><defs><clipPath id="satori_bc-id-0-0-0-1-1"><path x="914" y="328" width="200" height="200" d="M922,328 h184 a8,8 0 0 1 8,8 v184 a8,8 0 0 1 -8,8 h-184 a8,8 0 0 1 -8,-8 v-184 a8,8 0 0 1 8,-8"/></clipPath></defs><path width="200" height="200" clip-path="url(#satori_bc-id-0-0-0-1-1)" fill="none" stroke="black" stroke-width="6" d="M916.343,330.343 A8,8 0 0 1 922,328 h184 a8,8 0 0 1 8,8 v184 a8,8 0 0 1 -8,8 h-184 a8,8 0 0 1 -8,-8 v-184 A8,8 0 0 1 916.343,330.343"/></svg>