<svg width="1200" height="630" viewBox="0 0 1200 630" xmlns="http://www.w3.org/2000/svg"><rect x="0" y="0" width="1200" height="630" fill="#818cf8"/><defs><clipPath id="satori_bc-id-0-0"><path x="48" y="48" width="1104" height="534" d="M56,48 h1088 a8,8 0 0 1 8,8 v518 a8,8 0 0 1 -8,8 h-1088 a8,8 0 0 1 -8,-8 v-518 a8,8 0 0 1 8,-8"/></clipPath></defs><path x="48" y="48" width="1104" height="534" fill="white" d="M56,48 h1088 a8,8 0 0 1 8,8 v518 a8,8 0 0 1 -8,8 h-1088 a8,8 0 0 1 -8,-8 v-518 a8,8 0 0 1 8,-8" style="filter:drop-shadow(6px 6px 0 rgba(0, 0, 0, 1))"/><path width="1104" height="534" clip-path="url(#satori_bc-id-0-0)" fill="none" stroke="black" stroke-width="12" d="M50.343,50.343 A8,8 0 0 1 56,48 h1088 a8,8 0 0 1 8,8 v518 a8,8 0 0 1 -8,8 h-1088 a8,8 0 0 1 -8,-8 v-518 A8,8 0 0 1 50.343,50.343"/><path fill="black" d="M103.8 120.0L95.1 146.9L87.1 146.9L99.2 112.0L108.7 112.0L120.7 146.9L112.8 146.9L104.1 120.0L103.8 120.0ZM94.6 139.0L94.6 133.2L113.2 133.2L113.2 139.0L94.6 139.0ZM132.1 146.9L124.8 146.9L124.8 120.7L131.7 120.7L131.7 125.4L132.0 125.4Q132.8 123.1 134.8 121.7Q136.7 120.4 139.3 120.4L139.3 120.4Q142.0 120.4 143.9 121.7Q145.8 123.1 146.4 125.4L146.4 125.4L146.7 125.4Q147.5 123.1 149.6 121.8Q151.7 120.4 154.6 120.4L154.6 120.4Q158.3 120.4 160.5 122.7Q162.8 125.1 162.8 129.3L162.8 129.3L162.8 146.9L155.6 146.9L155.6 130.8Q155.6 128.6 154.4 127.5Q153.3 126.4 151.5 126.4L151.5 126.4Q149.6 126.4 148.5 127.6Q147.3 128.9 147.3 130.9L147.3 130.9L147.3 146.9L140.3 146.9L140.3 130.6Q140.3 128.7 139.2 127.5Q138.1 126.4 136.3 126.4L136.3 126.4Q135.1 126.4 134.1 127.0Q133.2 127.6 132.6 128.7Q132.1 129.8 132.1 131.2L132.1 131.2L132.1 146.9ZM176.0 147.4L176.0 147.4Q173.5 147.4 171.6 146.5Q169.6 145.7 168.5 143.9Q167.3 142.2 167.3 139.6L167.3 139.6Q167.3 137.4 168.1 136.0Q168.9 134.5 170.3 133.6Q171.7 132.7 173.5 132.2Q175.2 131.7 177.2 131.6L177.2 131.6Q179.5 131.3 180.9 131.1Q182.3 130.9 182.9 130.5Q183.5 130.0 183.5 129.2L183.5 129.2L183.5 129.1Q183.5 127.5 182.5 126.6Q181.5 125.7 179.6 125.7L179.6 125.7Q177.7 125.7 176.5 126.6Q175.4 127.4 175.0 128.7L175.0 128.7L168.3 128.2Q168.8 125.8 170.3 124.0Q171.8 122.3 174.2 121.4Q176.5 120.4 179.7 120.4L179.7 120.4Q181.8 120.4 183.8 120.9Q185.9 121.4 187.4 122.5Q189.0 123.6 189.9 125.3Q190.8 126.9 190.8 129.3L190.8 129.3L190.8 146.9L183.9 146.9L183.9 143.3L183.7 143.3Q183.1 144.5 182 145.5Q180.9 146.4 179.5 146.9Q178.0 147.4 176.0 147.4ZM178.1 142.4L178.1 142.4Q179.7 142.4 180.9 141.8Q182.2 141.1 182.9 140.0Q183.6 139.0 183.6 137.6L183.6 137.6L183.6 134.8Q183.2 135.0 182.6 135.2Q182.1 135.4 181.3 135.5Q180.6 135.7 179.9 135.8Q179.1 135.9 178.5 136.0L178.5 136.0Q177.2 136.2 176.3 136.6Q175.3 137.0 174.8 137.7Q174.3 138.4 174.3 139.4L174.3 139.4Q174.3 140.9 175.4 141.6Q176.4 142.4 178.1 142.4ZM218.3 146.9L196.3 146.9L196.3 142.6L209.1 126.7L209.1 126.5L196.7 126.5L196.7 120.7L217.8 120.7L217.8 125.5L205.8 140.9L205.8 141.1L218.3 141.1L218.3 146.9ZM234.9 147.4L234.9 147.4Q231.0 147.4 228.1 145.7Q225.2 144.0 223.6 141.0Q222.1 138.0 222.1 133.9L222.1 133.9Q222.1 129.9 223.6 126.8Q225.2 123.8 228.1 122.1Q231.0 120.4 234.9 120.4L234.9 120.4Q238.9 120.4 241.8 122.1Q244.7 123.8 246.3 126.8Q247.8 129.9 247.8 133.9L247.8 133.9Q247.8 138.0 246.3 141.0Q244.7 144.0 241.8 145.7Q238.9 147.4 234.9 147.4ZM235.0 141.8L235.0 141.8Q236.8 141.8 238.0 140.8Q239.2 139.8 239.8 138.0Q240.4 136.2 240.4 133.9L240.4 133.9Q240.4 131.6 239.8 129.8Q239.2 128.0 238.0 127.0Q236.8 125.9 235.0 125.9L235.0 125.9Q233.2 125.9 231.9 127.0Q230.7 128.0 230.1 129.8Q229.4 131.6 229.4 133.9L229.4 133.9Q229.4 136.2 230.1 138.0Q230.7 139.8 231.9 140.8Q233.2 141.8 235.0 141.8ZM259.8 131.8L259.8 131.8L259.8 146.9L252.6 146.9L252.6 120.7L259.5 120.7L259.5 125.4L259.8 125.4Q260.7 123.1 262.7 121.7Q264.8 120.4 267.7 120.4L267.7 120.4Q270.4 120.4 272.4 121.6Q274.5 122.8 275.6 125.0Q276.7 127.2 276.7 130.3L276.7 130.3L276.7 146.9L269.4 146.9L269.4 131.6Q269.5 129.1 268.2 127.8Q267.0 126.4 264.8 126.4L264.8 126.4Q263.3 126.4 262.2 127.1Q261.1 127.7 260.5 128.9Q259.8 130.1 259.8 131.8Z " style="filter:drop-shadow()"/><path fill="black" d="M92.8 519.0L88.0 519.0L88.0 495.7L92.9 495.7L92.9 504.4L93.0 504.4Q93.3 503.7 93.9 503.0Q94.5 502.3 95.5 501.8Q96.5 501.3 98.0 501.3L98.0 501.3Q99.9 501.3 101.5 502.3Q103.1 503.3 104.1 505.3Q105.0 507.2 105.0 510.2L105.0 510.2Q105.0 513.2 104.1 515.2Q103.2 517.2 101.6 518.2Q100.0 519.2 98.0 519.2L98.0 519.2Q96.6 519.2 95.6 518.8Q94.6 518.3 94.0 517.6Q93.3 516.9 93.0 516.2L93.0 516.2L92.8 516.2L92.8 519.0ZM92.8 510.2L92.8 510.2Q92.8 511.8 93.2 512.9Q93.6 514.1 94.4 514.7Q95.3 515.4 96.4 515.4L96.4 515.4Q97.6 515.4 98.4 514.7Q99.3 514.1 99.7 512.9Q100.1 511.7 100.1 510.2L100.1 510.2Q100.1 508.7 99.7 507.6Q99.3 506.4 98.4 505.8Q97.6 505.1 96.4 505.1L96.4 505.1Q95.3 505.1 94.4 505.7Q93.6 506.4 93.2 507.5Q92.8 508.7 92.8 510.2ZM108.3 495.7L113.1 495.7L113.1 519.0L108.3 519.0L108.3 495.7ZM124.9 519.3L124.9 519.3Q122.2 519.3 120.3 518.2Q118.4 517.0 117.3 515.0Q116.3 513.0 116.3 510.3L116.3 510.3Q116.3 507.6 117.3 505.6Q118.4 503.5 120.3 502.4Q122.2 501.3 124.9 501.3L124.9 501.3Q127.5 501.3 129.4 502.4Q131.4 503.5 132.4 505.6Q133.4 507.6 133.4 510.3L133.4 510.3Q133.4 513.0 132.4 515.0Q131.4 517.0 129.4 518.2Q127.5 519.3 124.9 519.3ZM124.9 515.5L124.9 515.5Q126.1 515.5 126.9 514.9Q127.7 514.2 128.1 513.0Q128.5 511.8 128.5 510.3L128.5 510.3Q128.5 508.7 128.1 507.5Q127.7 506.3 126.9 505.7Q126.1 505.0 124.9 505.0L124.9 505.0Q123.7 505.0 122.8 505.7Q122.0 506.3 121.6 507.5Q121.2 508.7 121.2 510.3L121.2 510.3Q121.2 511.8 121.6 513.0Q122.0 514.2 122.8 514.9Q123.7 515.5 124.9 515.5ZM144.5 525.9L144.5 525.9Q142.1 525.9 140.4 525.2Q138.8 524.6 137.8 523.5Q136.8 522.4 136.5 521.0L136.5 521.0L141.0 520.4Q141.2 520.9 141.6 521.4Q142.1 521.8 142.8 522.1Q143.5 522.4 144.6 522.4L144.6 522.4Q146.2 522.4 147.2 521.6Q148.2 520.8 148.2 519.1L148.2 519.1L148.2 515.9L148.0 515.9Q147.7 516.6 147.1 517.2Q146.4 517.9 145.4 518.3Q144.4 518.7 143.0 518.7L143.0 518.7Q141.1 518.7 139.5 517.8Q137.9 516.9 136.9 515.0Q136.0 513.1 136.0 510.2L136.0 510.2Q136.0 507.2 136.9 505.2Q137.9 503.2 139.5 502.3Q141.1 501.3 143.0 501.3L143.0 501.3Q144.5 501.3 145.5 501.8Q146.5 502.3 147.1 503.0Q147.7 503.7 148.0 504.4L148.0 504.4L148.2 504.4L148.2 501.5L153 501.5L153 519.1Q153 521.3 151.9 522.8Q150.8 524.3 148.9 525.1Q147.0 525.9 144.5 525.9ZM144.6 515.1L144.6 515.1Q145.7 515.1 146.6 514.5Q147.4 513.9 147.8 512.8Q148.2 511.7 148.2 510.2L148.2 510.2Q148.2 508.6 147.8 507.5Q147.4 506.4 146.6 505.7Q145.7 505.1 144.6 505.1L144.6 505.1Q143.4 505.1 142.6 505.8Q141.7 506.4 141.3 507.5Q140.9 508.7 140.9 510.2L140.9 510.2Q140.9 511.7 141.3 512.8Q141.8 513.9 142.6 514.5Q143.4 515.1 144.6 515.1ZM161.7 525.5L156.9 525.5L156.9 501.5L161.6 501.5L161.6 504.4L161.9 504.4Q162.2 503.7 162.8 503.0Q163.4 502.3 164.4 501.8Q165.4 501.3 166.8 501.3L166.8 501.3Q168.7 501.3 170.3 502.3Q172.0 503.3 172.9 505.3Q173.9 507.2 173.9 510.2L173.9 510.2Q173.9 513.2 172.9 515.2Q172.0 517.2 170.4 518.2Q168.8 519.2 166.8 519.2L166.8 519.2Q165.4 519.2 164.4 518.8Q163.4 518.3 162.8 517.6Q162.2 516.9 161.9 516.2L161.9 516.2L161.7 516.2L161.7 525.5ZM161.6 510.2L161.6 510.2Q161.6 511.8 162.0 512.9Q162.5 514.1 163.3 514.7Q164.1 515.4 165.3 515.4L165.3 515.4Q166.5 515.4 167.3 514.7Q168.1 514.1 168.5 512.9Q168.9 511.7 168.9 510.2L168.9 510.2Q168.9 508.7 168.5 507.6Q168.1 506.4 167.3 505.8Q166.5 505.1 165.3 505.1L165.3 505.1Q164.1 505.1 163.3 505.7Q162.5 506.4 162.0 507.5Q161.6 508.7 161.6 510.2ZM185.0 519.3L185.0 519.3Q182.3 519.3 180.4 518.2Q178.5 517.0 177.4 515.0Q176.4 513.0 176.4 510.3L176.4 510.3Q176.4 507.6 177.4 505.6Q178.5 503.5 180.4 502.4Q182.3 501.3 185.0 501.3L185.0 501.3Q187.6 501.3 189.6 502.4Q191.5 503.5 192.5 505.6Q193.6 507.6 193.6 510.3L193.6 510.3Q193.6 513.0 192.5 515.0Q191.5 517.0 189.6 518.2Q187.6 519.3 185.0 519.3ZM185.0 515.5L185.0 515.5Q186.2 515.5 187.0 514.9Q187.8 514.2 188.2 513.0Q188.7 511.8 188.7 510.3L188.7 510.3Q188.7 508.7 188.2 507.5Q187.8 506.3 187.0 505.7Q186.2 505.0 185.0 505.0L185.0 505.0Q183.8 505.0 183.0 505.7Q182.1 506.3 181.7 507.5Q181.3 508.7 181.3 510.3L181.3 510.3Q181.3 511.8 181.7 513.0Q182.1 514.2 183.0 514.9Q183.8 515.5 185.0 515.5ZM211.3 506.5L211.3 506.5L206.8 506.7Q206.7 506.2 206.3 505.7Q206.0 505.3 205.4 505.0Q204.7 504.7 203.9 504.7L203.9 504.7Q202.8 504.7 202.0 505.2Q201.2 505.6 201.2 506.4L201.2 506.4Q201.2 507.1 201.7 507.5Q202.2 507.9 203.5 508.2L203.5 508.2L206.6 508.8Q209.2 509.3 210.4 510.5Q211.7 511.7 211.7 513.5L211.7 513.5Q211.7 515.3 210.7 516.6Q209.6 517.8 207.9 518.6Q206.2 519.3 203.9 519.3L203.9 519.3Q200.4 519.3 198.4 517.8Q196.3 516.4 196.0 513.9L196.0 513.9L200.7 513.6Q200.9 514.7 201.8 515.3Q202.6 515.8 203.9 515.8L203.9 515.8Q205.2 515.8 205.9 515.3Q206.7 514.8 206.7 514.0L206.7 514.0Q206.7 513.4 206.2 512.9Q205.6 512.5 204.5 512.3L204.5 512.3L201.5 511.7Q198.9 511.2 197.7 509.9Q196.4 508.7 196.4 506.7L196.4 506.7Q196.4 505.0 197.3 503.8Q198.3 502.6 199.9 501.9Q201.6 501.3 203.8 501.3L203.8 501.3Q207.1 501.3 209.0 502.7Q210.9 504.1 211.3 506.5ZM213.5 501.5L224.0 501.5L224.0 505.1L213.5 505.1L213.5 501.5ZM215.9 514.2L215.9 497.3L220.7 497.3L220.7 513.6Q220.7 514.3 220.9 514.6Q221.1 515.0 221.5 515.1Q221.9 515.3 222.4 515.3L222.4 515.3Q222.7 515.3 223.0 515.2Q223.4 515.2 223.6 515.1L223.6 515.1L224.3 518.7Q224.0 518.8 223.3 519.0Q222.6 519.2 221.7 519.2L221.7 519.2Q219.9 519.3 218.6 518.7Q217.3 518.2 216.6 517.1Q215.9 515.9 215.9 514.2L215.9 514.2ZM226.9 507.5L237.5 507.5L237.5 511.3L226.9 511.3L226.9 507.5ZM260.0 514.9L241.2 514.9L241.2 511.0L250.9 495.7L254.3 495.7L254.3 501.0L252.3 501.0L246.2 510.7L246.2 510.9L260.0 510.9L260.0 514.9ZM257.1 519.0L252.4 519.0L252.4 513.7L252.5 512.0L252.5 495.7L257.1 495.7L257.1 519.0Z " style="filter:drop-shadow()"/><defs><clipPath id="satori_bc-id-0-0-0-1-1"><path x="914" y="328" width="200" height="200" d="M922,328 h184 a8,8 0 0 1 8,8 v184 a8,8 0 0 1 -8,8 h-184 a8,8 0 0 1 -8,-8 v-184 a8,8 0 0 1 8,-8"/></clipPath></defs><path width="200" height="200" clip-path="url(#satori_bc-id-0-0-0-1-1)" fill="none" stroke="black" stroke-width="6" d="M916.343,330.343 A8,8 0 0 1 922,328 h184 a8,8 0 0 1 8,8 v184 a8,8 0 0 1 -8,8 h-184 a8,8 0 0 1 -8,-8 v-184 A8,8 0 0 1 916.343,330.343"/></svg>