<svg width="1200" height="630" viewBox="0 0 1200 630" xmlns="http://www.w3.org/2000/svg"><rect x="0" y="0" width="1200" height="630" fill="#4ade80"/><defs><clipPath id="satori_bc-id-0-0"><path x="48" y="48" width="1104" height="534" d="M56,48 h1088 a8,8 0 0 1 8,8 v518 a8,8 0 0 1 -8,8 h-1088 a8,8 0 0 1 -8,-8 v-518 a8,8 0 0 1 8,-8"/></clipPath></defs><path x="48" y="48" width="1104" height="534" fill="white" d="M56,48 h1088 a8,8 0 0 1 8,8 v518 a8,8 0 0 1 -8,8 h-1088 a8,8 0 0 1 -8,-8 v-518 a8,8 0 0 1 8,-8" style="filter:drop-shadow(6px 6px 0 rgba(0, 0, 0, 1))"/><path width="1104" height="534" clip-path="url(#satori_bc-id-0-0)" fill="none" stroke="black" stroke-width="12" d="M50.343,50.343 A8,8 0 0 1 56,48 h1088 a8,8 0 0 1 8,8 v518 a8,8 0 0 1 -8,8 h-1088 a8,8 0 0 1 -8,-8 v-518 A8,8 0 0 1 50.343,50.343"/><path fill="black" d="M103.8 120.0L95.1 146.9L87.1 146.9L99.2 112.0L108.7 112.0L120.7 146.9L112.8 146.9L104.1 120.0L103.8 120.0ZM94.6 139.0L94.6 133.2L113.2 133.2L113.2 139.0L94.6 139.0ZM132.3 146.9L124.9 146.9L124.9 112.0L138.7 112.0Q142.7 112.0 145.5 113.4Q148.3 114.8 149.7 117.4Q151.2 120.0 151.2 123.4L151.2 123.4Q151.2 126.9 149.7 129.4Q148.2 131.9 145.4 133.2Q142.5 134.6 138.5 134.6L138.5 134.6L129.3 134.6L129.3 128.6L137.3 128.6Q139.4 128.6 140.8 128.0Q142.2 127.5 142.9 126.3Q143.6 125.1 143.6 123.4L143.6 123.4Q143.6 121.7 142.9 120.5Q142.2 119.3 140.8 118.7Q139.4 118.1 137.3 118.1L137.3 118.1L132.3 118.1L132.3 146.9ZM135.8 131.0L143.8 131.0L152.5 146.9L144.3 146.9L135.8 131.0Z M193.6 122.1L186.5 122.1Q186.3 120.0 184.7 118.9Q183.2 117.7 180.5 117.7L180.5 117.7Q178.7 117.7 177.5 118.2Q176.2 118.7 175.6 119.6Q174.9 120.5 174.9 121.6L174.9 121.6Q174.9 122.6 175.3 123.3Q175.8 124.0 176.5 124.5Q177.3 125.0 178.3 125.3Q179.3 125.7 180.4 125.9L180.4 125.9L183.6 126.7Q185.9 127.2 187.8 128.1Q189.7 128.9 191.1 130.2Q192.5 131.4 193.3 133.1Q194.0 134.8 194.1 137.0L194.1 137.0Q194.0 140.2 192.4 142.5Q190.8 144.8 187.8 146.1Q184.8 147.4 180.5 147.4L180.5 147.4Q176.3 147.4 173.1 146.1Q170.0 144.8 168.3 142.3Q166.5 139.7 166.4 136.0L166.4 136.0L173.6 136.0Q173.7 137.7 174.6 138.9Q175.5 140.1 177.0 140.6Q178.5 141.2 180.4 141.2L180.4 141.2Q182.3 141.2 183.7 140.7Q185.1 140.1 185.8 139.2Q186.6 138.2 186.6 136.9L186.6 136.9Q186.6 135.8 185.9 135.0Q185.2 134.2 183.9 133.6Q182.6 133.0 180.7 132.6L180.7 132.6L176.9 131.6Q172.5 130.5 169.9 128.3Q167.3 126.0 167.4 122.1L167.4 122.1Q167.3 118.9 169.1 116.6Q170.8 114.2 173.8 112.9Q176.8 111.5 180.6 111.5L180.6 111.5Q184.5 111.5 187.4 112.9Q190.3 114.2 191.9 116.6Q193.5 118.9 193.6 122.1L193.6 122.1ZM206.1 131.8L206.1 131.8L206.1 146.9L198.9 146.9L198.9 112.0L205.9 112.0L205.9 125.4L206.2 125.4Q207.1 123.0 209.1 121.7Q211.1 120.4 214.0 120.4L214.0 120.4Q216.8 120.4 218.8 121.6Q220.8 122.8 222.0 125.0Q223.1 127.2 223.1 130.3L223.1 130.3L223.1 146.9L215.8 146.9L215.8 131.6Q215.9 129.1 214.6 127.8Q213.4 126.4 211.2 126.4L211.2 126.4Q209.7 126.4 208.5 127.1Q207.4 127.7 206.8 128.9Q206.1 130.1 206.1 131.8ZM240.7 147.4L240.7 147.4Q236.7 147.4 233.8 145.7Q230.9 144.0 229.3 141.0Q227.8 138.0 227.8 133.9L227.8 133.9Q227.8 129.9 229.3 126.8Q230.9 123.8 233.8 122.1Q236.7 120.4 240.7 120.4L240.7 120.4Q244.6 120.4 247.5 122.1Q250.4 123.8 252.0 126.8Q253.5 129.9 253.5 133.9L253.5 133.9Q253.5 138.0 252.0 141.0Q250.4 144.0 247.5 145.7Q244.6 147.4 240.7 147.4ZM240.7 141.8L240.7 141.8Q242.5 141.8 243.7 140.8Q244.9 139.8 245.5 138.0Q246.2 136.2 246.2 133.9L246.2 133.9Q246.2 131.6 245.5 129.8Q244.9 128.0 243.7 127.0Q242.5 125.9 240.7 125.9L240.7 125.9Q238.9 125.9 237.6 127.0Q236.4 128.0 235.8 129.8Q235.1 131.6 235.1 133.9L235.1 133.9Q235.1 136.2 235.8 138.0Q236.4 139.8 237.6 140.8Q238.9 141.8 240.7 141.8ZM270.5 146.9L262.8 146.9L255.7 120.7L263.0 120.7L267.1 138.3L267.3 138.3L271.5 120.7L278.8 120.7L283.0 138.2L283.3 138.2L287.3 120.7L294.6 120.7L287.5 146.9L279.8 146.9L275.3 130.5L275.0 130.5L270.5 146.9ZM305.7 146.9L298.4 146.9L298.4 120.7L305.5 120.7L305.5 125.3L305.7 125.3Q306.5 122.9 308.2 121.6Q309.8 120.4 312.0 120.4L312.0 120.4Q312.6 120.4 313.2 120.4Q313.8 120.5 314.3 120.6L314.3 120.6L314.3 127.1Q313.8 126.9 312.9 126.8Q312.0 126.7 311.3 126.7L311.3 126.7Q309.7 126.7 308.4 127.4Q307.1 128.1 306.4 129.3Q305.7 130.5 305.7 132.1L305.7 132.1L305.7 146.9ZM328.7 147.4L328.7 147.4Q324.7 147.4 321.8 145.7Q318.9 144.0 317.3 141.0Q315.8 138.0 315.8 133.9L315.8 133.9Q315.8 129.9 317.3 126.8Q318.9 123.8 321.8 122.1Q324.7 120.4 328.7 120.4L328.7 120.4Q332.6 120.4 335.5 122.1Q338.4 123.8 340.0 126.8Q341.5 129.9 341.5 133.9L341.5 133.9Q341.5 138.0 340.0 141.0Q338.4 144.0 335.5 145.7Q332.6 147.4 328.7 147.4ZM328.7 141.8L328.7 141.8Q330.5 141.8 331.7 140.8Q332.9 139.8 333.5 138.0Q334.2 136.2 334.2 133.9L334.2 133.9Q334.2 131.6 333.5 129.8Q332.9 128.0 331.7 127.0Q330.5 125.9 328.7 125.9L328.7 125.9Q326.9 125.9 325.6 127.0Q324.4 128.0 323.8 129.8Q323.2 131.6 323.2 133.9L323.2 133.9Q323.2 136.2 323.8 138.0Q324.4 139.8 325.6 140.8Q326.9 141.8 328.7 141.8ZM358.1 147.4L358.1 147.4Q354.1 147.4 351.3 145.7Q348.4 144.0 346.8 141.0Q345.2 138.0 345.2 133.9L345.2 133.9Q345.2 129.9 346.8 126.8Q348.4 123.8 351.3 122.1Q354.1 120.4 358.1 120.4L358.1 120.4Q362.1 120.4 365.0 122.1Q367.9 123.8 369.4 126.8Q371.0 129.9 371.0 133.9L371.0 133.9Q371.0 138.0 369.4 141.0Q367.9 144.0 365.0 145.7Q362.1 147.4 358.1 147.4ZM358.1 141.8L358.1 141.8Q360.0 141.8 361.2 140.8Q362.4 139.8 363.0 138.0Q363.6 136.2 363.6 133.9L363.6 133.9Q363.6 131.6 363.0 129.8Q362.4 128.0 361.2 127.0Q360.0 125.9 358.1 125.9L358.1 125.9Q356.3 125.9 355.1 127.0Q353.9 128.0 353.2 129.8Q352.6 131.6 352.6 133.9L352.6 133.9Q352.6 136.2 353.2 138.0Q353.9 139.8 355.1 140.8Q356.3 141.8 358.1 141.8ZM383.0 146.9L375.7 146.9L375.7 120.7L382.7 120.7L382.7 125.4L383.0 125.4Q383.8 123.1 385.7 121.7Q387.6 120.4 390.3 120.4L390.3 120.4Q393.0 120.4 394.8 121.7Q396.7 123.1 397.4 125.4L397.4 125.4L397.6 125.4Q398.4 123.1 400.5 121.8Q402.7 120.4 405.5 120.4L405.5 120.4Q409.2 120.4 411.5 122.7Q413.8 125.1 413.8 129.3L413.8 129.3L413.8 146.9L406.5 146.9L406.5 130.8Q406.5 128.6 405.4 127.5Q404.2 126.4 402.5 126.4L402.5 126.4Q400.5 126.4 399.4 127.6Q398.3 128.9 398.3 130.9L398.3 130.9L398.3 146.9L391.2 146.9L391.2 130.6Q391.2 128.7 390.2 127.5Q389.1 126.4 387.3 126.4L387.3 126.4Q386.1 126.4 385.1 127.0Q384.1 127.6 383.6 128.7Q383.0 129.8 383.0 131.2L383.0 131.2L383.0 146.9ZM441.3 128.2L441.3 128.2L434.6 128.6Q434.5 127.8 433.9 127.1Q433.4 126.4 432.4 126.0Q431.5 125.6 430.3 125.6L430.3 125.6Q428.6 125.6 427.4 126.3Q426.3 127.0 426.3 128.1L426.3 128.1Q426.3 129.1 427.0 129.7Q427.8 130.4 429.6 130.8L429.6 130.8L434.3 131.7Q438.1 132.5 440.0 134.2Q441.9 136.0 441.9 138.8L441.9 138.8Q441.9 141.4 440.4 143.3Q438.9 145.3 436.3 146.4Q433.6 147.4 430.2 147.4L430.2 147.4Q425.0 147.4 422.0 145.3Q418.9 143.1 418.4 139.3L418.4 139.3L425.5 139.0Q425.8 140.6 427.1 141.4Q428.3 142.2 430.2 142.2L430.2 142.2Q432.2 142.2 433.3 141.5Q434.5 140.7 434.5 139.5L434.5 139.5Q434.5 138.6 433.7 137.9Q432.9 137.3 431.2 136.9L431.2 136.9L426.6 136.0Q422.8 135.3 420.9 133.4Q419.1 131.5 419.1 128.6L419.1 128.6Q419.1 126.0 420.4 124.2Q421.8 122.4 424.3 121.4Q426.8 120.4 430.1 120.4L430.1 120.4Q435.1 120.4 438.0 122.5Q440.8 124.6 441.3 128.2Z " style="filter:drop-shadow()"/><path fill="black" d="M92.8 519.0L88.0 519.0L88.0 495.7L92.9 495.7L92.9 504.4L93.0 504.4Q93.3 503.7 93.9 503.0Q94.5 502.3 95.5 501.8Q96.5 501.3 98.0 501.3L98.0 501.3Q99.9 501.3 101.5 502.3Q103.1 503.3 104.1 505.3Q105.0 507.2 105.0 510.2L105.0 510.2Q105.0 513.2 104.1 515.2Q103.2 517.2 101.6 518.2Q100.0 519.2 98.0 519.2L98.0 519.2Q96.6 519.2 95.6 518.8Q94.6 518.3 94.0 517.6Q93.3 516.9 93.0 516.2L93.0 516.2L92.8 516.2L92.8 519.0ZM92.8 510.2L92.8 510.2Q92.8 511.8 93.2 512.9Q93.6 514.1 94.4 514.7Q95.3 515.4 96.4 515.4L96.4 515.4Q97.6 515.4 98.4 514.7Q99.3 514.1 99.7 512.9Q100.1 511.7 100.1 510.2L100.1 510.2Q100.1 508.7 99.7 507.6Q99.3 506.4 98.4 505.8Q97.6 505.1 96.4 505.1L96.4 505.1Q95.3 505.1 94.4 505.7Q93.6 506.4 93.2 507.5Q92.8 508.7 92.8 510.2ZM108.3 495.7L113.1 495.7L113.1 519.0L108.3 519.0L108.3 495.7ZM124.9 519.3L124.9 519.3Q122.2 519.3 120.3 518.2Q118.4 517.0 117.3 515.0Q116.3 513.0 116.3 510.3L116.3 510.3Q116.3 507.6 117.3 505.6Q118.4 503.5 120.3 502.4Q122.2 501.3 124.9 501.3L124.9 501.3Q127.5 501.3 129.4 502.4Q131.4 503.5 132.4 505.6Q133.4 507.6 133.4 510.3L133.4 510.3Q133.4 513.0 132.4 515.0Q131.4 517.0 129.4 518.2Q127.5 519.3 124.9 519.3ZM124.9 515.5L124.9 515.5Q126.1 515.5 126.9 514.9Q127.7 514.2 128.1 513.0Q128.5 511.8 128.5 510.3L128.5 510.3Q128.5 508.7 128.1 507.5Q127.7 506.3 126.9 505.7Q126.1 505.0 124.9 505.0L124.9 505.0Q123.7 505.0 122.8 505.7Q122.0 506.3 121.6 507.5Q121.2 508.7 121.2 510.3L121.2 510.3Q121.2 511.8 121.6 513.0Q122.0 514.2 122.8 514.9Q123.7 515.5 124.9 515.5ZM144.5 525.9L144.5 525.9Q142.1 525.9 140.4 525.2Q138.8 524.6 137.8 523.5Q136.8 522.4 136.5 521.0L136.5 521.0L141.0 520.4Q141.2 520.9 141.6 521.4Q142.1 521.8 142.8 522.1Q143.5 522.4 144.6 522.4L144.6 522.4Q146.2 522.4 147.2 521.6Q148.2 520.8 148.2 519.1L148.2 519.1L148.2 515.9L148.0 515.9Q147.7 516.6 147.1 517.2Q146.4 517.9 145.4 518.3Q144.4 518.7 143.0 518.7L143.0 518.7Q141.1 518.7 139.5 517.8Q137.9 516.9 136.9 515.0Q136.0 513.1 136.0 510.2L136.0 510.2Q136.0 507.2 136.9 505.2Q137.9 503.2 139.5 502.3Q141.1 501.3 143.0 501.3L143.0 501.3Q144.5 501.3 145.5 501.8Q146.5 502.3 147.1 503.0Q147.7 503.7 148.0 504.4L148.0 504.4L148.2 504.4L148.2 501.5L153 501.5L153 519.1Q153 521.3 151.9 522.8Q150.8 524.3 148.9 525.1Q147.0 525.9 144.5 525.9ZM144.6 515.1L144.6 515.1Q145.7 515.1 146.6 514.5Q147.4 513.9 147.8 512.8Q148.2 511.7 148.2 510.2L148.2 510.2Q148.2 508.6 147.8 507.5Q147.4 506.4 146.6 505.7Q145.7 505.1 144.6 505.1L144.6 505.1Q143.4 505.1 142.6 505.8Q141.7 506.4 141.3 507.5Q140.9 508.7 140.9 510.2L140.9 510.2Q140.9 511.7 141.3 512.8Q141.8 513.9 142.6 514.5Q143.4 515.1 144.6 515.1ZM161.7 525.5L156.9 525.5L156.9 501.5L161.6 501.5L161.6 504.4L161.9 504.4Q162.2 503.7 162.8 503.0Q163.4 502.3 164.4 501.8Q165.4 501.3 166.8 501.3L166.8 501.3Q168.7 501.3 170.3 502.3Q172.0 503.3 172.9 505.3Q173.9 507.2 173.9 510.2L173.9 510.2Q173.9 513.2 172.9 515.2Q172.0 517.2 170.4 518.2Q168.8 519.2 166.8 519.2L166.8 519.2Q165.4 519.2 164.4 518.8Q163.4 518.3 162.8 517.6Q162.2 516.9 161.9 516.2L161.9 516.2L161.7 516.2L161.7 525.5ZM161.6 510.2L161.6 510.2Q161.6 511.8 162.0 512.9Q162.5 514.1 163.3 514.7Q164.1 515.4 165.3 515.4L165.3 515.4Q166.5 515.4 167.3 514.7Q168.1 514.1 168.5 512.9Q168.9 511.7 168.9 510.2L168.9 510.2Q168.9 508.7 168.5 507.6Q168.1 506.4 167.3 505.8Q166.5 505.1 165.3 505.1L165.3 505.1Q164.1 505.1 163.3 505.7Q162.5 506.4 162.0 507.5Q161.6 508.7 161.6 510.2ZM185.0 519.3L185.0 519.3Q182.3 519.3 180.4 518.2Q178.5 517.0 177.4 515.0Q176.4 513.0 176.4 510.3L176.4 510.3Q176.4 507.6 177.4 505.6Q178.5 503.5 180.4 502.4Q182.3 501.3 185.0 501.3L185.0 501.3Q187.6 501.3 189.6 502.4Q191.5 503.5 192.5 505.6Q193.6 507.6 193.6 510.3L193.6 510.3Q193.6 513.0 192.5 515.0Q191.5 517.0 189.6 518.2Q187.6 519.3 185.0 519.3ZM185.0 515.5L185.0 515.5Q186.2 515.5 187.0 514.9Q187.8 514.2 188.2 513.0Q188.7 511.8 188.7 510.3L188.7 510.3Q188.7 508.7 188.2 507.5Q187.8 506.3 187.0 505.7Q186.2 505.0 185.0 505.0L185.0 505.0Q183.8 505.0 183.0 505.7Q182.1 506.3 181.7 507.5Q181.3 508.7 181.3 510.3L181.3 510.3Q181.3 511.8 181.7 513.0Q182.1 514.2 183.0 514.9Q183.8 515.5 185.0 515.5ZM211.3 506.5L211.3 506.5L206.8 506.7Q206.7 506.2 206.3 505.7Q206.0 505.3 205.4 505.0Q204.7 504.7 203.9 504.7L203.9 504.7Q202.8 504.7 202.0 505.2Q201.2 505.6 201.2 506.4L201.2 506.4Q201.2 507.1 201.7 507.5Q202.2 507.9 203.5 508.2L203.5 508.2L206.6 508.8Q209.2 509.3 210.4 510.5Q211.7 511.7 211.7 513.5L211.7 513.5Q211.7 515.3 210.7 516.6Q209.6 517.8 207.9 518.6Q206.2 519.3 203.9 519.3L203.9 519.3Q200.4 519.3 198.4 517.8Q196.3 516.4 196.0 513.9L196.0 513.9L200.7 513.6Q200.9 514.7 201.8 515.3Q202.6 515.8 203.9 515.8L203.9 515.8Q205.2 515.8 205.9 515.3Q206.7 514.8 206.7 514.0L206.7 514.0Q206.7 513.4 206.2 512.9Q205.6 512.5 204.5 512.3L204.5 512.3L201.5 511.7Q198.9 511.2 197.7 509.9Q196.4 508.7 196.4 506.7L196.4 506.7Q196.4 505.0 197.3 503.8Q198.3 502.6 199.9 501.9Q201.6 501.3 203.8 501.3L203.8 501.3Q207.1 501.3 209.0 502.7Q210.9 504.1 211.3 506.5ZM213.5 501.5L224.0 501.5L224.0 505.1L213.5 505.1L213.5 501.5ZM215.9 514.2L215.9 497.3L220.7 497.3L220.7 513.6Q220.7 514.3 220.9 514.6Q221.1 515.0 221.5 515.1Q221.9 515.3 222.4 515.3L222.4 515.3Q222.7 515.3 223.0 515.2Q223.4 515.2 223.6 515.1L223.6 515.1L224.3 518.7Q224.0 518.8 223.3 519.0Q222.6 519.2 221.7 519.2L221.7 519.2Q219.9 519.3 218.6 518.7Q217.3 518.2 216.6 517.1Q215.9 515.9 215.9 514.2L215.9 514.2ZM226.9 507.5L237.5 507.5L237.5 511.3L226.9 511.3L226.9 507.5ZM246.6 519.0L241.6 519.0L251.2 499.9L251.2 499.7L240.0 499.7L240.0 495.7L256.3 495.7L256.3 499.8L246.6 519.0Z " style="filter:drop-shadow()"/><defs><clipPath id="satori_bc-id-0-0-0-1-1"><path x="914" y="328" width="200" height="200" d="M922,328 h184 a8,8 0 0 1 8,8 v184 a8,8 0 0 1 -8,8 h-184 a8,8 0 0 1 -8,-8 v-184 a8,8 0 0 1 8,-8"/></clipPath></defs><path width="200" height="200" clip-path="url(#satori_bc-id-0-0-0-1-1)" fill="none" stroke="black" stroke-width="6" d="M916.343,330.343 A8,8 0 0 1 922,328 h184 a8,8 0 0 1 8,8 v184 a8,8 0 0 1 -8,8 h-184 a8,8 0 0 1 -8,-8 v-184 A8,8 0 0 1 916.343,330.343"/></svg>