<svg width="1200" height="630" viewBox="0 0 1200 630" xmlns="http://www.w3.org/2000/svg"><rect x="0" y="0" width="1200" height="630" fill="#f87171"/><defs><clipPath id="satori_bc-id-0-0"><path x="48" y="48" width="1104" height="534" d="M56,48 h1088 a8,8 0 0 1 8,8 v518 a8,8 0 0 1 -8,8 h-1088 a8,8 0 0 1 -8,-8 v-518 a8,8 0 0 1 8,-8"/></clipPath></defs><path x="48" y="48" width="1104" height="534" fill="white" d="M56,48 h1088 a8,8 0 0 1 8,8 v518 a8,8 0 0 1 -8,8 h-1088 a8,8 0 0 1 -8,-8 v-518 a8,8 0 0 1 8,-8" style="filter:drop-shadow(6px 6px 0 rgba(0, 0, 0, 1))"/><path width="1104" height="534" clip-path="url(#satori_bc-id-0-0)" fill="none" stroke="black" stroke-width="12" d="M50.343,50.343 A8,8 0 0 1 56,48 h1088 a8,8 0 0 1 8,8 v518 a8,8 0 0 1 -8,8 h-1088 a8,8 0 0 1 -8,-8 v-518 A8,8 0 0 1 50.343,50.343"/><path fill="black" d="M104.1 146.9L96.9 146.9L86.9 112.0L95.0 112.0L100.7 136.3L101.0 136.3L107.4 112.0L114.3 112.0L120.7 136.3L121.0 136.3L126.8 112.0L134.8 112.0L124.8 146.9L117.6 146.9L111.0 124.1L110.7 124.1L104.1 146.9ZM147.6 147.4L147.6 147.4Q143.6 147.4 140.8 145.7Q137.9 144.0 136.3 141.0Q134.7 138.0 134.7 133.9L134.7 133.9Q134.7 129.9 136.3 126.8Q137.9 123.8 140.8 122.1Q143.6 120.4 147.6 120.4L147.6 120.4Q151.6 120.4 154.5 122.1Q157.4 123.8 158.9 126.8Q160.5 129.9 160.5 133.9L160.5 133.9Q160.5 138.0 158.9 141.0Q157.4 144.0 154.5 145.7Q151.6 147.4 147.6 147.4ZM147.7 141.8L147.7 141.8Q149.5 141.8 150.7 140.8Q151.9 139.8 152.5 138.0Q153.1 136.2 153.1 133.9L153.1 133.9Q153.1 131.6 152.5 129.8Q151.9 128.0 150.7 127.0Q149.5 125.9 147.7 125.9L147.7 125.9Q145.8 125.9 144.6 127.0Q143.4 128.0 142.7 129.8Q142.1 131.6 142.1 133.9L142.1 133.9Q142.1 136.2 142.7 138.0Q143.4 139.8 144.6 140.8Q145.8 141.8 147.7 141.8ZM172.5 146.9L165.2 146.9L165.2 120.7L172.3 120.7L172.3 125.3L172.6 125.3Q173.3 122.9 175.0 121.6Q176.6 120.4 178.8 120.4L178.8 120.4Q179.4 120.4 180.0 120.4Q180.7 120.5 181.1 120.6L181.1 120.6L181.1 127.1Q180.6 126.9 179.7 126.8Q178.8 126.7 178.1 126.7L178.1 126.7Q176.5 126.7 175.2 127.4Q174.0 128.1 173.2 129.3Q172.5 130.5 172.5 132.1L172.5 132.1L172.5 146.9ZM184.9 112.0L192.1 112.0L192.1 146.9L184.9 146.9L184.9 112.0ZM207.6 147.4L207.6 147.4Q204.6 147.4 202.2 145.8Q199.8 144.3 198.4 141.3Q196.9 138.3 196.9 133.9L196.9 133.9Q196.9 129.4 198.4 126.4Q199.8 123.4 202.3 121.9Q204.7 120.4 207.6 120.4L207.6 120.4Q209.7 120.4 211.2 121.1Q212.7 121.9 213.6 123.0Q214.5 124.1 215.0 125.1L215.0 125.1L215.2 125.1L215.2 112.0L222.5 112.0L222.5 146.9L215.3 146.9L215.3 142.7L215.0 142.7Q214.5 143.8 213.6 144.9Q212.6 146.0 211.2 146.7Q209.7 147.4 207.6 147.4ZM209.9 141.6L209.9 141.6Q211.6 141.6 212.8 140.6Q214.1 139.6 214.7 137.9Q215.4 136.2 215.4 133.8L215.4 133.8Q215.4 131.5 214.7 129.8Q214.1 128.1 212.9 127.1Q211.6 126.2 209.9 126.2L209.9 126.2Q208.1 126.2 206.9 127.2Q205.6 128.1 205.0 129.8Q204.4 131.6 204.4 133.8L204.4 133.8Q204.4 136.1 205.0 137.9Q205.6 139.6 206.9 140.6Q208.1 141.6 209.9 141.6Z M257.3 120.0L248.5 146.9L240.6 146.9L252.7 112.0L262.2 112.0L274.2 146.9L266.3 146.9L257.6 120.0L257.3 120.0ZM248.0 139.0L248.0 133.2L266.7 133.2L266.7 139.0L248.0 139.0ZM285.5 146.9L278.3 146.9L278.3 120.7L285.3 120.7L285.3 125.3L285.6 125.3Q286.3 122.9 288.0 121.6Q289.7 120.4 291.9 120.4L291.9 120.4Q292.4 120.4 293.1 120.4Q293.7 120.5 294.2 120.6L294.2 120.6L294.2 127.1Q293.6 126.9 292.7 126.8Q291.8 126.7 291.1 126.7L291.1 126.7Q289.5 126.7 288.2 127.4Q287.0 128.1 286.3 129.3Q285.5 130.5 285.5 132.1L285.5 132.1L285.5 146.9ZM297.4 120.7L313.1 120.7L313.1 126.2L297.4 126.2L297.4 120.7ZM300.9 139.8L300.9 114.5L308.2 114.5L308.2 138.9Q308.2 139.9 308.5 140.4Q308.8 141.0 309.4 141.2Q309.9 141.4 310.7 141.4L310.7 141.4Q311.2 141.4 311.7 141.3Q312.2 141.3 312.5 141.2L312.5 141.2L313.6 146.6Q313.1 146.8 312.1 147.0Q311.1 147.2 309.7 147.3L309.7 147.3Q307.0 147.4 305.1 146.6Q303.1 145.8 302.0 144.1Q300.9 142.4 300.9 139.8L300.9 139.8Z M340.2 146.9L340.2 146.9L327.8 146.9L327.8 112.0L340.3 112.0Q345.6 112.0 349.4 114.1Q353.2 116.2 355.2 120.1Q357.3 124.0 357.3 129.4L357.3 129.4Q357.3 134.9 355.2 138.8Q353.2 142.7 349.3 144.8Q345.5 146.9 340.2 146.9ZM335.2 118.3L335.2 140.6L339.9 140.6Q343.1 140.6 345.4 139.4Q347.6 138.3 348.8 135.8Q349.9 133.3 349.9 129.4L349.9 129.4Q349.9 125.6 348.8 123.1Q347.6 120.7 345.4 119.5Q343.2 118.3 339.9 118.3L339.9 118.3L335.2 118.3ZM370.0 147.4L370.0 147.4Q367.5 147.4 365.6 146.5Q363.6 145.7 362.5 143.9Q361.4 142.2 361.4 139.6L361.4 139.6Q361.4 137.4 362.2 136.0Q363.0 134.5 364.3 133.6Q365.7 132.7 367.5 132.2Q369.2 131.7 371.2 131.6L371.2 131.6Q373.5 131.3 374.9 131.1Q376.3 130.9 376.9 130.5Q377.5 130.0 377.5 129.2L377.5 129.2L377.5 129.1Q377.5 127.5 376.5 126.6Q375.5 125.7 373.6 125.7L373.6 125.7Q371.7 125.7 370.5 126.6Q369.4 127.4 369.0 128.7L369.0 128.7L362.3 128.2Q362.8 125.8 364.3 124.0Q365.8 122.3 368.2 121.4Q370.5 120.4 373.7 120.4L373.7 120.4Q375.9 120.4 377.9 120.9Q379.9 121.4 381.4 122.5Q383.0 123.6 383.9 125.3Q384.8 126.9 384.8 129.3L384.8 129.3L384.8 146.9L377.9 146.9L377.9 143.3L377.7 143.3Q377.1 144.5 376.0 145.5Q375.0 146.4 373.5 146.9Q372.0 147.4 370.0 147.4ZM372.1 142.4L372.1 142.4Q373.7 142.4 375.0 141.8Q376.2 141.1 376.9 140.0Q377.6 139.0 377.6 137.6L377.6 137.6L377.6 134.8Q377.2 135.0 376.7 135.2Q376.1 135.4 375.3 135.5Q374.6 135.7 373.9 135.8Q373.1 135.9 372.5 136.0L372.5 136.0Q371.3 136.2 370.3 136.6Q369.3 137.0 368.8 137.7Q368.3 138.4 368.3 139.4L368.3 139.4Q368.3 140.9 369.4 141.6Q370.5 142.4 372.1 142.4ZM394.0 156.7L394.0 156.7Q392.6 156.7 391.4 156.5Q390.2 156.3 389.4 156.0L389.4 156.0L391.0 150.6Q392.3 151.0 393.3 151.0Q394.4 151.0 395.1 150.5Q395.9 150.0 396.4 148.8L396.4 148.8L396.8 147.7L387.4 120.7L395.0 120.7L400.5 140.0L400.7 140.0L406.2 120.7L413.9 120.7L403.7 149.8Q403.0 151.9 401.7 153.4Q400.5 155.0 398.6 155.9Q396.7 156.7 394.0 156.7Z M441.5 147.4L441.5 147.4Q437.5 147.4 434.6 145.7Q431.7 144.0 430.2 141.0Q428.6 137.9 428.6 133.9L428.6 133.9Q428.6 129.9 430.2 126.9Q431.8 123.8 434.6 122.1Q437.5 120.4 441.5 120.4L441.5 120.4Q444.9 120.4 447.5 121.6Q450.1 122.9 451.6 125.1Q453.1 127.4 453.2 130.4L453.2 130.4L446.4 130.4Q446.1 128.5 444.8 127.3Q443.6 126.1 441.6 126.1L441.6 126.1Q439.9 126.1 438.7 127.0Q437.4 127.9 436.7 129.6Q436.0 131.4 436.0 133.8L436.0 133.8Q436.0 136.3 436.7 138.1Q437.4 139.9 438.7 140.8Q439.9 141.7 441.6 141.7L441.6 141.7Q442.8 141.7 443.8 141.2Q444.8 140.7 445.5 139.7Q446.2 138.7 446.4 137.3L446.4 137.3L453.2 137.3Q453.0 140.3 451.6 142.6Q450.1 144.9 447.6 146.2Q445.0 147.4 441.5 147.4ZM469.7 147.4L469.7 147.4Q465.7 147.4 462.8 145.7Q460.0 144.0 458.4 141.0Q456.8 138.0 456.8 133.9L456.8 133.9Q456.8 129.9 458.4 126.8Q460.0 123.8 462.8 122.1Q465.7 120.4 469.7 120.4L469.7 120.4Q473.7 120.4 476.6 122.1Q479.5 123.8 481.0 126.8Q482.6 129.9 482.6 133.9L482.6 133.9Q482.6 138.0 481.0 141.0Q479.5 144.0 476.6 145.7Q473.7 147.4 469.7 147.4ZM469.7 141.8L469.7 141.8Q471.6 141.8 472.8 140.8Q474.0 139.8 474.6 138.0Q475.2 136.2 475.2 133.9L475.2 133.9Q475.2 131.6 474.6 129.8Q474.0 128.0 472.8 127.0Q471.6 125.9 469.7 125.9L469.7 125.9Q467.9 125.9 466.7 127.0Q465.4 128.0 464.8 129.8Q464.2 131.6 464.2 133.9L464.2 133.9Q464.2 136.2 464.8 138.0Q465.4 139.8 466.7 140.8Q467.9 141.8 469.7 141.8ZM494.6 131.8L494.6 131.8L494.6 146.9L487.3 146.9L487.3 120.7L494.3 120.7L494.3 125.4L494.6 125.4Q495.4 123.1 497.5 121.7Q499.5 120.4 502.4 120.4L502.4 120.4Q505.2 120.4 507.2 121.6Q509.2 122.8 510.3 125.0Q511.5 127.2 511.5 130.3L511.5 130.3L511.5 146.9L504.2 146.9L504.2 131.6Q504.2 129.1 503.0 127.8Q501.7 126.4 499.6 126.4L499.6 126.4Q498.1 126.4 497.0 127.1Q495.9 127.7 495.2 128.9Q494.6 130.1 494.6 131.8ZM529.0 147.4L529.0 147.4Q525.0 147.4 522.1 145.7Q519.2 144.0 517.7 141.0Q516.1 137.9 516.1 133.9L516.1 133.9Q516.1 129.9 517.7 126.9Q519.2 123.8 522.1 122.1Q525.0 120.4 529.0 120.4L529.0 120.4Q532.4 120.4 535.0 121.6Q537.6 122.9 539.1 125.1Q540.6 127.4 540.7 130.4L540.7 130.4L533.9 130.4Q533.6 128.5 532.3 127.3Q531.1 126.1 529.1 126.1L529.1 126.1Q527.4 126.1 526.2 127.0Q524.9 127.9 524.2 129.6Q523.5 131.4 523.5 133.8L523.5 133.8Q523.5 136.3 524.2 138.1Q524.9 139.9 526.1 140.8Q527.4 141.7 529.1 141.7L529.1 141.7Q530.3 141.7 531.3 141.2Q532.3 140.7 533.0 139.7Q533.6 138.7 533.9 137.3L533.9 137.3L540.7 137.3Q540.5 140.3 539.1 142.6Q537.6 144.9 535.1 146.2Q532.5 147.4 529.0 147.4ZM557.3 147.4L557.3 147.4Q553.3 147.4 550.4 145.8Q547.5 144.1 545.9 141.1Q544.3 138.1 544.3 134.0L544.3 134.0Q544.3 129.9 545.9 126.9Q547.5 123.8 550.3 122.1Q553.2 120.4 557.0 120.4L557.0 120.4Q559.6 120.4 561.8 121.2Q564.1 122.1 565.8 123.7Q567.4 125.4 568.4 127.9Q569.3 130.4 569.3 133.7L569.3 133.7L569.3 135.7L547.2 135.7L547.2 131.2L562.5 131.2Q562.5 129.6 561.8 128.4Q561.1 127.2 559.9 126.5Q558.7 125.8 557.1 125.8L557.1 125.8Q555.5 125.8 554.2 126.6Q552.9 127.3 552.2 128.6Q551.5 129.9 551.5 131.4L551.5 131.4L551.5 135.7Q551.5 137.7 552.2 139.1Q552.9 140.5 554.3 141.3Q555.6 142.0 557.4 142.0L557.4 142.0Q558.6 142.0 559.6 141.7Q560.6 141.3 561.4 140.7Q562.1 140.0 562.5 139.0L562.5 139.0L569.2 139.4Q568.7 141.8 567.1 143.6Q565.5 145.4 563.0 146.4Q560.5 147.4 557.3 147.4ZM581.3 156.7L574.1 156.7L574.1 120.7L581.2 120.7L581.2 125.1L581.5 125.1Q582.0 124.1 582.9 123.0Q583.8 121.9 585.3 121.1Q586.8 120.4 589.0 120.4L589.0 120.4Q591.9 120.4 594.3 121.9Q596.7 123.4 598.1 126.4Q599.6 129.4 599.6 133.9L599.6 133.9Q599.6 138.3 598.2 141.3Q596.8 144.3 594.4 145.8Q592.0 147.4 589.0 147.4L589.0 147.4Q586.9 147.4 585.4 146.7Q583.9 146.0 583.0 144.9Q582.0 143.8 581.5 142.7L581.5 142.7L581.3 142.7L581.3 156.7ZM581.2 133.8L581.2 133.8Q581.2 136.2 581.8 137.9Q582.5 139.6 583.7 140.6Q584.9 141.6 586.7 141.6L586.7 141.6Q588.4 141.6 589.7 140.6Q590.9 139.6 591.5 137.9Q592.2 136.1 592.2 133.8L592.2 133.8Q592.2 131.6 591.6 129.8Q590.9 128.1 589.7 127.2Q588.5 126.2 586.7 126.2L586.7 126.2Q584.9 126.2 583.7 127.1Q582.5 128.1 581.8 129.8Q581.2 131.5 581.2 133.8ZM602.6 120.7L618.3 120.7L618.3 126.2L602.6 126.2L602.6 120.7ZM606.2 139.8L606.2 114.5L613.4 114.5L613.4 138.9Q613.4 139.9 613.7 140.4Q614.0 141.0 614.6 141.2Q615.1 141.4 615.9 141.4L615.9 141.4Q616.4 141.4 616.9 141.3Q617.4 141.3 617.7 141.2L617.7 141.2L618.8 146.6Q618.3 146.8 617.3 147.0Q616.3 147.2 614.9 147.3L614.9 147.3Q612.3 147.4 610.3 146.6Q608.3 145.8 607.2 144.1Q606.1 142.4 606.2 139.8L606.2 139.8Z " style="filter:drop-shadow()"/><path fill="black" d="M92.8 519.0L88.0 519.0L88.0 495.7L92.9 495.7L92.9 504.4L93.0 504.4Q93.3 503.7 93.9 503.0Q94.5 502.3 95.5 501.8Q96.5 501.3 98.0 501.3L98.0 501.3Q99.9 501.3 101.5 502.3Q103.1 503.3 104.1 505.3Q105.0 507.2 105.0 510.2L105.0 510.2Q105.0 513.2 104.1 515.2Q103.2 517.2 101.6 518.2Q100.0 519.2 98.0 519.2L98.0 519.2Q96.6 519.2 95.6 518.8Q94.6 518.3 94.0 517.6Q93.3 516.9 93.0 516.2L93.0 516.2L92.8 516.2L92.8 519.0ZM92.8 510.2L92.8 510.2Q92.8 511.8 93.2 512.9Q93.6 514.1 94.4 514.7Q95.3 515.4 96.4 515.4L96.4 515.4Q97.6 515.4 98.4 514.7Q99.3 514.1 99.7 512.9Q100.1 511.7 100.1 510.2L100.1 510.2Q100.1 508.7 99.7 507.6Q99.3 506.4 98.4 505.8Q97.6 505.1 96.4 505.1L96.4 505.1Q95.3 505.1 94.4 505.7Q93.6 506.4 93.2 507.5Q92.8 508.7 92.8 510.2ZM108.3 495.7L113.1 495.7L113.1 519.0L108.3 519.0L108.3 495.7ZM124.9 519.3L124.9 519.3Q122.2 519.3 120.3 518.2Q118.4 517.0 117.3 515.0Q116.3 513.0 116.3 510.3L116.3 510.3Q116.3 507.6 117.3 505.6Q118.4 503.5 120.3 502.4Q122.2 501.3 124.9 501.3L124.9 501.3Q127.5 501.3 129.4 502.4Q131.4 503.5 132.4 505.6Q133.4 507.6 133.4 510.3L133.4 510.3Q133.4 513.0 132.4 515.0Q131.4 517.0 129.4 518.2Q127.5 519.3 124.9 519.3ZM124.9 515.5L124.9 515.5Q126.1 515.5 126.9 514.9Q127.7 514.2 128.1 513.0Q128.5 511.8 128.5 510.3L128.5 510.3Q128.5 508.7 128.1 507.5Q127.7 506.3 126.9 505.7Q126.1 505.0 124.9 505.0L124.9 505.0Q123.7 505.0 122.8 505.7Q122.0 506.3 121.6 507.5Q121.2 508.7 121.2 510.3L121.2 510.3Q121.2 511.8 121.6 513.0Q122.0 514.2 122.8 514.9Q123.7 515.5 124.9 515.5ZM144.5 525.9L144.5 525.9Q142.1 525.9 140.4 525.2Q138.8 524.6 137.8 523.5Q136.8 522.4 136.5 521.0L136.5 521.0L141.0 520.4Q141.2 520.9 141.6 521.4Q142.1 521.8 142.8 522.1Q143.5 522.4 144.6 522.4L144.6 522.4Q146.2 522.4 147.2 521.6Q148.2 520.8 148.2 519.1L148.2 519.1L148.2 515.9L148.0 515.9Q147.7 516.6 147.1 517.2Q146.4 517.9 145.4 518.3Q144.4 518.7 143.0 518.7L143.0 518.7Q141.1 518.7 139.5 517.8Q137.9 516.9 136.9 515.0Q136.0 513.1 136.0 510.2L136.0 510.2Q136.0 507.2 136.9 505.2Q137.9 503.2 139.5 502.3Q141.1 501.3 143.0 501.3L143.0 501.3Q144.5 501.3 145.5 501.8Q146.5 502.3 147.1 503.0Q147.7 503.7 148.0 504.4L148.0 504.4L148.2 504.4L148.2 501.5L153 501.5L153 519.1Q153 521.3 151.9 522.8Q150.8 524.3 148.9 525.1Q147.0 525.9 144.5 525.9ZM144.6 515.1L144.6 515.1Q145.7 515.1 146.6 514.5Q147.4 513.9 147.8 512.8Q148.2 511.7 148.2 510.2L148.2 510.2Q148.2 508.6 147.8 507.5Q147.4 506.4 146.6 505.7Q145.7 505.1 144.6 505.1L144.6 505.1Q143.4 505.1 142.6 505.8Q141.7 506.4 141.3 507.5Q140.9 508.7 140.9 510.2L140.9 510.2Q140.9 511.7 141.3 512.8Q141.8 513.9 142.6 514.5Q143.4 515.1 144.6 515.1ZM161.7 525.5L156.9 525.5L156.9 501.5L161.6 501.5L161.6 504.4L161.9 504.4Q162.2 503.7 162.8 503.0Q163.4 502.3 164.4 501.8Q165.4 501.3 166.8 501.3L166.8 501.3Q168.7 501.3 170.3 502.3Q172.0 503.3 172.9 505.3Q173.9 507.2 173.9 510.2L173.9 510.2Q173.9 513.2 172.9 515.2Q172.0 517.2 170.4 518.2Q168.8 519.2 166.8 519.2L166.8 519.2Q165.4 519.2 164.4 518.8Q163.4 518.3 162.8 517.6Q162.2 516.9 161.9 516.2L161.9 516.2L161.7 516.2L161.7 525.5ZM161.6 510.2L161.6 510.2Q161.6 511.8 162.0 512.9Q162.5 514.1 163.3 514.7Q164.1 515.4 165.3 515.4L165.3 515.4Q166.5 515.4 167.3 514.7Q168.1 514.1 168.5 512.9Q168.9 511.7 168.9 510.2L168.9 510.2Q168.9 508.7 168.5 507.6Q168.1 506.4 167.3 505.8Q166.5 505.1 165.3 505.1L165.3 505.1Q164.1 505.1 163.3 505.7Q162.5 506.4 162.0 507.5Q161.6 508.7 161.6 510.2ZM185.0 519.3L185.0 519.3Q182.3 519.3 180.4 518.2Q178.5 517.0 177.4 515.0Q176.4 513.0 176.4 510.3L176.4 510.3Q176.4 507.6 177.4 505.6Q178.5 503.5 180.4 502.4Q182.3 501.3 185.0 501.3L185.0 501.3Q187.6 501.3 189.6 502.4Q191.5 503.5 192.5 505.6Q193.6 507.6 193.6 510.3L193.6 510.3Q193.6 513.0 192.5 515.0Q191.5 517.0 189.6 518.2Q187.6 519.3 185.0 519.3ZM185.0 515.5L185.0 515.5Q186.2 515.5 187.0 514.9Q187.8 514.2 188.2 513.0Q188.7 511.8 188.7 510.3L188.7 510.3Q188.7 508.7 188.2 507.5Q187.8 506.3 187.0 505.7Q186.2 505.0 185.0 505.0L185.0 505.0Q183.8 505.0 183.0 505.7Q182.1 506.3 181.7 507.5Q181.3 508.7 181.3 510.3L181.3 510.3Q181.3 511.8 181.7 513.0Q182.1 514.2 183.0 514.9Q183.8 515.5 185.0 515.5ZM211.3 506.5L211.3 506.5L206.8 506.7Q206.7 506.2 206.3 505.7Q206.0 505.3 205.4 505.0Q204.7 504.7 203.9 504.7L203.9 504.7Q202.8 504.7 202.0 505.2Q201.2 505.6 201.2 506.4L201.2 506.4Q201.2 507.1 201.7 507.5Q202.2 507.9 203.5 508.2L203.5 508.2L206.6 508.8Q209.2 509.3 210.4 510.5Q211.7 511.7 211.7 513.5L211.7 513.5Q211.7 515.3 210.7 516.6Q209.6 517.8 207.9 518.6Q206.2 519.3 203.9 519.3L203.9 519.3Q200.4 519.3 198.4 517.8Q196.3 516.4 196.0 513.9L196.0 513.9L200.7 513.6Q200.9 514.7 201.8 515.3Q202.6 515.8 203.9 515.8L203.9 515.8Q205.2 515.8 205.9 515.3Q206.7 514.8 206.7 514.0L206.7 514.0Q206.7 513.4 206.2 512.9Q205.6 512.5 204.5 512.3L204.5 512.3L201.5 511.7Q198.9 511.2 197.7 509.9Q196.4 508.7 196.4 506.7L196.4 506.7Q196.4 505.0 197.3 503.8Q198.3 502.6 199.9 501.9Q201.6 501.3 203.8 501.3L203.8 501.3Q207.1 501.3 209.0 502.7Q210.9 504.1 211.3 506.5ZM213.5 501.5L224.0 501.5L224.0 505.1L213.5 505.1L213.5 501.5ZM215.9 514.2L215.9 497.3L220.7 497.3L220.7 513.6Q220.7 514.3 220.9 514.6Q221.1 515.0 221.5 515.1Q221.9 515.3 222.4 515.3L222.4 515.3Q222.7 515.3 223.0 515.2Q223.4 515.2 223.6 515.1L223.6 515.1L224.3 518.7Q224.0 518.8 223.3 519.0Q222.6 519.2 221.7 519.2L221.7 519.2Q219.9 519.3 218.6 518.7Q217.3 518.2 216.6 517.1Q215.9 515.9 215.9 514.2L215.9 514.2ZM226.9 507.5L237.5 507.5L237.5 511.3L226.9 511.3L226.9 507.5ZM250.5 519.3L250.5 519.3Q248.7 519.3 247.1 518.7Q245.4 518.1 244.1 516.7Q242.7 515.4 242.0 513.2Q241.2 511.0 241.2 507.8L241.2 507.8Q241.2 504.9 241.9 502.6Q242.6 500.3 243.8 498.7Q245.0 497.1 246.8 496.2Q248.5 495.4 250.7 495.4L250.7 495.4Q253.0 495.4 254.8 496.3Q256.6 497.2 257.7 498.7Q258.7 500.3 259.0 502.2L259.0 502.2L254.1 502.2Q253.8 501.0 252.9 500.3Q252.0 499.6 250.7 499.6L250.7 499.6Q248.4 499.6 247.2 501.6Q246.1 503.5 246.0 506.9L246.0 506.9L246.2 506.9Q246.7 505.9 247.6 505.2Q248.5 504.4 249.6 504.0Q250.8 503.6 252.1 503.6L252.1 503.6Q254.1 503.6 255.7 504.6Q257.4 505.6 258.3 507.3Q259.2 509.0 259.2 511.2L259.2 511.2Q259.2 513.5 258.1 515.4Q257.0 517.2 255.1 518.2Q253.1 519.3 250.5 519.3ZM250.5 515.4L250.5 515.4Q251.6 515.4 252.5 514.9Q253.4 514.3 253.9 513.4Q254.4 512.5 254.4 511.3L254.4 511.3Q254.4 510.1 253.9 509.2Q253.4 508.3 252.5 507.7Q251.7 507.2 250.5 507.2L250.5 507.2Q249.7 507.2 248.9 507.5Q248.2 507.8 247.7 508.4Q247.1 509.0 246.8 509.7Q246.5 510.5 246.5 511.3L246.5 511.3Q246.5 512.4 247.1 513.4Q247.6 514.3 248.5 514.8Q249.4 515.4 250.5 515.4Z " style="filter:drop-shadow()"/><defs><clipPath id="satori_bc-id-0-0-0-1-1"><path x="914" y="328" width="200" height="200" d="M922,328 h184 a8,8 0 0 1 8,8 v184 a8,8 0 0 1 -8,8 h-184 a8,8 0 0 1 -8,-8 v-184 a8,8 0 0 1 8,-8"/></clipPath></defs><path width="200" height="200" clip-path="url(#satori_bc-id-0-0-0-1-1)" fill="none" stroke="black" stroke-width="6" d="M916.343,330.343 A8,8 0 0 1 922,328 h184 a8,8 0 0 1 8,8 v184 a8,8 0 0 1 -8,8 h-184 a8,8 0 0 1 -8,-8 v-184 A8,8 0 0 1 916.343,330.343"/></svg>