<svg width="1200" height="630" viewBox="0 0 1200 630" xmlns="http://www.w3.org/2000/svg"><rect x="0" y="0" width="1200" height="630" fill="#fb923c"/><defs><clipPath id="satori_bc-id-0-0"><path x="48" y="48" width="1104" height="534" d="M56,48 h1088 a8,8 0 0 1 8,8 v518 a8,8 0 0 1 -8,8 h-1088 a8,8 0 0 1 -8,-8 v-518 a8,8 0 0 1 8,-8"/></clipPath></defs><path x="48" y="48" width="1104" height="534" fill="white" d="M56,48 h1088 a8,8 0 0 1 8,8 v518 a8,8 0 0 1 -8,8 h-1088 a8,8 0 0 1 -8,-8 v-518 a8,8 0 0 1 8,-8" style="filter:drop-shadow(6px 6px 0 rgba(0, 0, 0, 1))"/><path width="1104" height="534" clip-path="url(#satori_bc-id-0-0)" fill="none" stroke="black" stroke-width="12" d="M50.343,50.343 A8,8 0 0 1 56,48 h1088 a8,8 0 0 1 8,8 v518 a8,8 0 0 1 -8,8 h-1088 a8,8 0 0 1 -8,-8 v-518 A8,8 0 0 1 50.343,50.343"/><path fill="black" d="M101.4 146.9L101.4 146.9L89.0 146.9L89.0 112.0L101.5 112.0Q106.8 112.0 110.6 114.1Q114.4 116.2 116.4 120.1Q118.5 124.0 118.5 129.4L118.5 129.4Q118.5 134.9 116.4 138.8Q114.4 142.7 110.6 144.8Q106.7 146.9 101.4 146.9ZM96.4 118.3L96.4 140.6L101.1 140.6Q104.4 140.6 106.6 139.4Q108.9 138.3 110.0 135.8Q111.1 133.3 111.1 129.4L111.1 129.4Q111.1 125.6 110.0 123.1Q108.9 120.7 106.6 119.5Q104.4 118.3 101.1 118.3L101.1 118.3L96.4 118.3ZM135.7 147.4L135.7 147.4Q131.7 147.4 128.8 145.8Q125.9 144.1 124.3 141.1Q122.8 138.1 122.8 134.0L122.8 134.0Q122.8 129.9 124.3 126.9Q125.9 123.8 128.7 122.1Q131.6 120.4 135.4 120.4L135.4 120.4Q138.0 120.4 140.3 121.2Q142.5 122.1 144.2 123.7Q145.9 125.4 146.8 127.9Q147.8 130.4 147.8 133.7L147.8 133.7L147.8 135.7L125.6 135.7L125.6 131.2L140.9 131.2Q140.9 129.6 140.2 128.4Q139.6 127.2 138.4 126.5Q137.2 125.8 135.6 125.8L135.6 125.8Q133.9 125.8 132.6 126.6Q131.4 127.3 130.7 128.6Q129.9 129.9 129.9 131.4L129.9 131.4L129.9 135.7Q129.9 137.7 130.7 139.1Q131.4 140.5 132.7 141.3Q134.0 142.0 135.9 142.0L135.9 142.0Q137.1 142.0 138.1 141.7Q139.1 141.3 139.8 140.7Q140.5 140.0 140.9 139.0L140.9 139.0L147.6 139.4Q147.1 141.8 145.5 143.6Q143.9 145.4 141.5 146.4Q139.0 147.4 135.7 147.4ZM152.5 112.0L159.8 112.0L159.8 146.9L152.5 146.9L152.5 112.0ZM165.6 112.0L172.8 112.0L172.8 146.9L165.6 146.9L165.6 112.0Z M199.2 118.1L188.5 118.1L188.5 112.0L217.2 112.0L217.2 118.1L206.5 118.1L206.5 146.9L199.2 146.9L199.2 118.1ZM229.9 147.4L229.9 147.4Q225.9 147.4 223.0 145.8Q220.1 144.1 218.5 141.1Q216.9 138.1 216.9 134.0L216.9 134.0Q216.9 129.9 218.5 126.9Q220.1 123.8 222.9 122.1Q225.8 120.4 229.6 120.4L229.6 120.4Q232.2 120.4 234.5 121.2Q236.7 122.1 238.4 123.7Q240.1 125.4 241.0 127.9Q241.9 130.4 241.9 133.7L241.9 133.7L241.9 135.7L219.8 135.7L219.8 131.2L235.1 131.2Q235.1 129.6 234.4 128.4Q233.8 127.2 232.5 126.5Q231.3 125.8 229.8 125.8L229.8 125.8Q228.1 125.8 226.8 126.6Q225.6 127.3 224.9 128.6Q224.1 129.9 224.1 131.4L224.1 131.4L224.1 135.7Q224.1 137.7 224.8 139.1Q225.6 140.5 226.9 141.3Q228.2 142.0 230.1 142.0L230.1 142.0Q231.3 142.0 232.3 141.7Q233.3 141.3 234.0 140.7Q234.7 140.0 235.1 139.0L235.1 139.0L241.8 139.4Q241.3 141.8 239.7 143.6Q238.1 145.4 235.7 146.4Q233.2 147.4 229.9 147.4ZM258.5 147.4L258.5 147.4Q254.5 147.4 251.6 145.7Q248.7 144.0 247.2 141.0Q245.6 137.9 245.6 133.9L245.6 133.9Q245.6 129.9 247.2 126.9Q248.8 123.8 251.6 122.1Q254.5 120.4 258.5 120.4L258.5 120.4Q261.9 120.4 264.5 121.6Q267.1 122.9 268.6 125.1Q270.1 127.4 270.2 130.4L270.2 130.4L263.4 130.4Q263.1 128.5 261.8 127.3Q260.6 126.1 258.6 126.1L258.6 126.1Q256.9 126.1 255.7 127.0Q254.4 127.9 253.7 129.6Q253.0 131.4 253.0 133.8L253.0 133.8Q253.0 136.3 253.7 138.1Q254.4 139.9 255.7 140.8Q256.9 141.7 258.6 141.7L258.6 141.7Q259.8 141.7 260.8 141.2Q261.8 140.7 262.5 139.7Q263.2 138.7 263.4 137.3L263.4 137.3L270.2 137.3Q270.0 140.3 268.6 142.6Q267.1 144.9 264.6 146.2Q262.0 147.4 258.5 147.4ZM282.1 131.8L282.1 131.8L282.1 146.9L274.9 146.9L274.9 112.0L281.9 112.0L281.9 125.4L282.2 125.4Q283.1 123.0 285.1 121.7Q287.1 120.4 290.1 120.4L290.1 120.4Q292.8 120.4 294.8 121.6Q296.9 122.8 298.0 125.0Q299.1 127.2 299.1 130.3L299.1 130.3L299.1 146.9L291.9 146.9L291.9 131.6Q291.9 129.1 290.6 127.8Q289.4 126.4 287.2 126.4L287.2 126.4Q285.7 126.4 284.6 127.1Q283.4 127.7 282.8 128.9Q282.2 130.1 282.1 131.8ZM312.1 131.8L312.1 131.8L312.1 146.9L304.8 146.9L304.8 120.7L311.8 120.7L311.8 125.4L312.1 125.4Q312.9 123.1 315.0 121.7Q317.0 120.4 319.9 120.4L319.9 120.4Q322.7 120.4 324.7 121.6Q326.7 122.8 327.9 125.0Q329.0 127.2 329.0 130.3L329.0 130.3L329.0 146.9L321.7 146.9L321.7 131.6Q321.7 129.1 320.5 127.8Q319.3 126.4 317.1 126.4L317.1 126.4Q315.6 126.4 314.5 127.1Q313.4 127.7 312.7 128.9Q312.1 130.1 312.1 131.8ZM346.5 147.4L346.5 147.4Q342.6 147.4 339.7 145.7Q336.8 144.0 335.2 141.0Q333.6 138.0 333.6 133.9L333.6 133.9Q333.6 129.9 335.2 126.8Q336.8 123.8 339.7 122.1Q342.6 120.4 346.5 120.4L346.5 120.4Q350.5 120.4 353.4 122.1Q356.3 123.8 357.8 126.8Q359.4 129.9 359.4 133.9L359.4 133.9Q359.4 138.0 357.8 141.0Q356.3 144.0 353.4 145.7Q350.5 147.4 346.5 147.4ZM346.6 141.8L346.6 141.8Q348.4 141.8 349.6 140.8Q350.8 139.8 351.4 138.0Q352.0 136.2 352.0 133.9L352.0 133.9Q352.0 131.6 351.4 129.8Q350.8 128.0 349.6 127.0Q348.4 125.9 346.6 125.9L346.6 125.9Q344.7 125.9 343.5 127.0Q342.3 128.0 341.6 129.8Q341.0 131.6 341.0 133.9L341.0 133.9Q341.0 136.2 341.6 138.0Q342.3 139.8 343.5 140.8Q344.7 141.8 346.6 141.8ZM364.1 112.0L371.4 112.0L371.4 146.9L364.1 146.9L364.1 112.0ZM389.0 147.4L389.0 147.4Q385.1 147.4 382.2 145.7Q379.3 144.0 377.7 141.0Q376.1 138.0 376.1 133.9L376.1 133.9Q376.1 129.9 377.7 126.8Q379.3 123.8 382.2 122.1Q385.1 120.4 389.0 120.4L389.0 120.4Q393.0 120.4 395.9 122.1Q398.8 123.8 400.4 126.8Q401.9 129.9 401.9 133.9L401.9 133.9Q401.9 138.0 400.4 141.0Q398.8 144.0 395.9 145.7Q393.0 147.4 389.0 147.4ZM389.1 141.8L389.1 141.8Q390.9 141.8 392.1 140.8Q393.3 139.8 393.9 138.0Q394.5 136.2 394.5 133.9L394.5 133.9Q394.5 131.6 393.9 129.8Q393.3 128.0 392.1 127.0Q390.9 125.9 389.1 125.9L389.1 125.9Q387.2 125.9 386.0 127.0Q384.8 128.0 384.2 129.8Q383.5 131.6 383.5 133.9L383.5 133.9Q383.5 136.2 384.2 138.0Q384.8 139.8 386.0 140.8Q387.2 141.8 389.1 141.8ZM418.5 157.3L418.5 157.3Q414.9 157.3 412.4 156.3Q409.9 155.4 408.4 153.7Q406.9 152.1 406.5 150.0L406.5 150.0L413.2 149.1Q413.5 149.9 414.2 150.6Q414.8 151.2 415.9 151.7Q417.0 152.1 418.6 152.1L418.6 152.1Q421.0 152.1 422.5 150.9Q424.1 149.8 424.1 147.1L424.1 147.1L424.1 142.3L423.8 142.3Q423.3 143.4 422.3 144.4Q421.4 145.3 419.9 145.9Q418.4 146.6 416.3 146.6L416.3 146.6Q413.4 146.6 410.9 145.2Q408.5 143.8 407.1 141.0Q405.7 138.1 405.7 133.8L405.7 133.8Q405.7 129.3 407.1 126.4Q408.6 123.4 411.0 121.9Q413.4 120.4 416.3 120.4L416.3 120.4Q418.5 120.4 420.0 121.1Q421.5 121.9 422.4 123.0Q423.3 124.1 423.8 125.1L423.8 125.1L424.0 125.1L424.0 120.7L431.3 120.7L431.3 147.2Q431.3 150.5 429.6 152.8Q428.0 155.0 425.1 156.2Q422.2 157.3 418.5 157.3ZM418.6 141.1L418.6 141.1Q420.4 141.1 421.6 140.2Q422.8 139.3 423.5 137.7Q424.1 136.1 424.1 133.8L424.1 133.8Q424.1 131.5 423.5 129.8Q422.8 128.1 421.6 127.1Q420.4 126.2 418.6 126.2L418.6 126.2Q416.8 126.2 415.6 127.1Q414.4 128.1 413.7 129.8Q413.1 131.5 413.1 133.8L413.1 133.8Q413.1 136.0 413.7 137.7Q414.4 139.3 415.6 140.2Q416.8 141.1 418.6 141.1ZM444.3 146.9L437.1 146.9L437.1 120.7L444.3 120.7L444.3 146.9ZM440.7 117.4L440.7 117.4Q439.1 117.4 437.9 116.3Q436.8 115.2 436.8 113.7L436.8 113.7Q436.8 112.2 437.9 111.1Q439.1 110.0 440.7 110.0L440.7 110.0Q442.3 110.0 443.5 111.1Q444.6 112.2 444.6 113.7L444.6 113.7Q444.6 115.2 443.5 116.3Q442.3 117.4 440.7 117.4ZM462.0 147.4L462.0 147.4Q458.0 147.4 455.1 145.8Q452.2 144.1 450.6 141.1Q449.1 138.1 449.1 134.0L449.1 134.0Q449.1 129.9 450.6 126.9Q452.2 123.8 455.0 122.1Q457.9 120.4 461.7 120.4L461.7 120.4Q464.3 120.4 466.6 121.2Q468.8 122.1 470.5 123.7Q472.2 125.4 473.1 127.9Q474.1 130.4 474.1 133.7L474.1 133.7L474.1 135.7L451.9 135.7L451.9 131.2L467.2 131.2Q467.2 129.6 466.5 128.4Q465.9 127.2 464.7 126.5Q463.5 125.8 461.9 125.8L461.9 125.8Q460.2 125.8 458.9 126.6Q457.7 127.3 457.0 128.6Q456.2 129.9 456.2 131.4L456.2 131.4L456.2 135.7Q456.2 137.7 457.0 139.1Q457.7 140.5 459.0 141.3Q460.3 142.0 462.2 142.0L462.2 142.0Q463.4 142.0 464.4 141.7Q465.4 141.3 466.1 140.7Q466.8 140.0 467.2 139.0L467.2 139.0L473.9 139.4Q473.4 141.8 471.8 143.6Q470.2 145.4 467.8 146.4Q465.3 147.4 462.0 147.4ZM500.6 128.2L500.6 128.2L493.9 128.6Q493.8 127.8 493.2 127.1Q492.6 126.4 491.7 126.0Q490.8 125.6 489.6 125.6L489.6 125.6Q487.9 125.6 486.7 126.3Q485.5 127.0 485.5 128.1L485.5 128.1Q485.5 129.1 486.3 129.7Q487.0 130.4 488.9 130.8L488.9 130.8L493.6 131.7Q497.4 132.5 499.3 134.2Q501.2 136.0 501.2 138.8L501.2 138.8Q501.2 141.4 499.7 143.3Q498.2 145.3 495.5 146.4Q492.9 147.4 489.5 147.4L489.5 147.4Q484.3 147.4 481.2 145.3Q478.2 143.1 477.6 139.3L477.6 139.3L484.8 139.0Q485.1 140.6 486.3 141.4Q487.6 142.2 489.5 142.2L489.5 142.2Q491.4 142.2 492.6 141.5Q493.8 140.7 493.8 139.5L493.8 139.5Q493.8 138.6 493.0 137.9Q492.1 137.3 490.4 136.9L490.4 136.9L485.9 136.0Q482.1 135.3 480.2 133.4Q478.3 131.5 478.3 128.6L478.3 128.6Q478.3 126.0 479.7 124.2Q481.1 122.4 483.6 121.4Q486.1 120.4 489.4 120.4L489.4 120.4Q494.4 120.4 497.2 122.5Q500.1 124.6 500.6 128.2Z " style="filter:drop-shadow()"/><path fill="black" d="M92.8 519.0L88.0 519.0L88.0 495.7L92.9 495.7L92.9 504.4L93.0 504.4Q93.3 503.7 93.9 503.0Q94.5 502.3 95.5 501.8Q96.5 501.3 98.0 501.3L98.0 501.3Q99.9 501.3 101.5 502.3Q103.1 503.3 104.1 505.3Q105.0 507.2 105.0 510.2L105.0 510.2Q105.0 513.2 104.1 515.2Q103.2 517.2 101.6 518.2Q100.0 519.2 98.0 519.2L98.0 519.2Q96.6 519.2 95.6 518.8Q94.6 518.3 94.0 517.6Q93.3 516.9 93.0 516.2L93.0 516.2L92.8 516.2L92.8 519.0ZM92.8 510.2L92.8 510.2Q92.8 511.8 93.2 512.9Q93.6 514.1 94.4 514.7Q95.3 515.4 96.4 515.4L96.4 515.4Q97.6 515.4 98.4 514.7Q99.3 514.1 99.7 512.9Q100.1 511.7 100.1 510.2L100.1 510.2Q100.1 508.7 99.7 507.6Q99.3 506.4 98.4 505.8Q97.6 505.1 96.4 505.1L96.4 505.1Q95.3 505.1 94.4 505.7Q93.6 506.4 93.2 507.5Q92.8 508.7 92.8 510.2ZM108.3 495.7L113.1 495.7L113.1 519.0L108.3 519.0L108.3 495.7ZM124.9 519.3L124.9 519.3Q122.2 519.3 120.3 518.2Q118.4 517.0 117.3 515.0Q116.3 513.0 116.3 510.3L116.3 510.3Q116.3 507.6 117.3 505.6Q118.4 503.5 120.3 502.4Q122.2 501.3 124.9 501.3L124.9 501.3Q127.5 501.3 129.4 502.4Q131.4 503.5 132.4 505.6Q133.4 507.6 133.4 510.3L133.4 510.3Q133.4 513.0 132.4 515.0Q131.4 517.0 129.4 518.2Q127.5 519.3 124.9 519.3ZM124.9 515.5L124.9 515.5Q126.1 515.5 126.9 514.9Q127.7 514.2 128.1 513.0Q128.5 511.8 128.5 510.3L128.5 510.3Q128.5 508.7 128.1 507.5Q127.7 506.3 126.9 505.7Q126.1 505.0 124.9 505.0L124.9 505.0Q123.7 505.0 122.8 505.7Q122.0 506.3 121.6 507.5Q121.2 508.7 121.2 510.3L121.2 510.3Q121.2 511.8 121.6 513.0Q122.0 514.2 122.8 514.9Q123.7 515.5 124.9 515.5ZM144.5 525.9L144.5 525.9Q142.1 525.9 140.4 525.2Q138.8 524.6 137.8 523.5Q136.8 522.4 136.5 521.0L136.5 521.0L141.0 520.4Q141.2 520.9 141.6 521.4Q142.1 521.8 142.8 522.1Q143.5 522.4 144.6 522.4L144.6 522.4Q146.2 522.4 147.2 521.6Q148.2 520.8 148.2 519.1L148.2 519.1L148.2 515.9L148.0 515.9Q147.7 516.6 147.1 517.2Q146.4 517.9 145.4 518.3Q144.4 518.7 143.0 518.7L143.0 518.7Q141.1 518.7 139.5 517.8Q137.9 516.9 136.9 515.0Q136.0 513.1 136.0 510.2L136.0 510.2Q136.0 507.2 136.9 505.2Q137.9 503.2 139.5 502.3Q141.1 501.3 143.0 501.3L143.0 501.3Q144.5 501.3 145.5 501.8Q146.5 502.3 147.1 503.0Q147.7 503.7 148.0 504.4L148.0 504.4L148.2 504.4L148.2 501.5L153 501.5L153 519.1Q153 521.3 151.9 522.8Q150.8 524.3 148.9 525.1Q147.0 525.9 144.5 525.9ZM144.6 515.1L144.6 515.1Q145.7 515.1 146.6 514.5Q147.4 513.9 147.8 512.8Q148.2 511.7 148.2 510.2L148.2 510.2Q148.2 508.6 147.8 507.5Q147.4 506.4 146.6 505.7Q145.7 505.1 144.6 505.1L144.6 505.1Q143.4 505.1 142.6 505.8Q141.7 506.4 141.3 507.5Q140.9 508.7 140.9 510.2L140.9 510.2Q140.9 511.7 141.3 512.8Q141.8 513.9 142.6 514.5Q143.4 515.1 144.6 515.1ZM161.7 525.5L156.9 525.5L156.9 501.5L161.6 501.5L161.6 504.4L161.9 504.4Q162.2 503.7 162.8 503.0Q163.4 502.3 164.4 501.8Q165.4 501.3 166.8 501.3L166.8 501.3Q168.7 501.3 170.3 502.3Q172.0 503.3 172.9 505.3Q173.9 507.2 173.9 510.2L173.9 510.2Q173.9 513.2 172.9 515.2Q172.0 517.2 170.4 518.2Q168.8 519.2 166.8 519.2L166.8 519.2Q165.4 519.2 164.4 518.8Q163.4 518.3 162.8 517.6Q162.2 516.9 161.9 516.2L161.9 516.2L161.7 516.2L161.7 525.5ZM161.6 510.2L161.6 510.2Q161.6 511.8 162.0 512.9Q162.5 514.1 163.3 514.7Q164.1 515.4 165.3 515.4L165.3 515.4Q166.5 515.4 167.3 514.7Q168.1 514.1 168.5 512.9Q168.9 511.7 168.9 510.2L168.9 510.2Q168.9 508.7 168.5 507.6Q168.1 506.4 167.3 505.8Q166.5 505.1 165.3 505.1L165.3 505.1Q164.1 505.1 163.3 505.7Q162.5 506.4 162.0 507.5Q161.6 508.7 161.6 510.2ZM185.0 519.3L185.0 519.3Q182.3 519.3 180.4 518.2Q178.5 517.0 177.4 515.0Q176.4 513.0 176.4 510.3L176.4 510.3Q176.4 507.6 177.4 505.6Q178.5 503.5 180.4 502.4Q182.3 501.3 185.0 501.3L185.0 501.3Q187.6 501.3 189.6 502.4Q191.5 503.5 192.5 505.6Q193.6 507.6 193.6 510.3L193.6 510.3Q193.6 513.0 192.5 515.0Q191.5 517.0 189.6 518.2Q187.6 519.3 185.0 519.3ZM185.0 515.5L185.0 515.5Q186.2 515.5 187.0 514.9Q187.8 514.2 188.2 513.0Q188.7 511.8 188.7 510.3L188.7 510.3Q188.7 508.7 188.2 507.5Q187.8 506.3 187.0 505.7Q186.2 505.0 185.0 505.0L185.0 505.0Q183.8 505.0 183.0 505.7Q182.1 506.3 181.7 507.5Q181.3 508.7 181.3 510.3L181.3 510.3Q181.3 511.8 181.7 513.0Q182.1 514.2 183.0 514.9Q183.8 515.5 185.0 515.5ZM211.3 506.5L211.3 506.5L206.8 506.7Q206.7 506.2 206.3 505.7Q206.0 505.3 205.4 505.0Q204.7 504.7 203.9 504.7L203.9 504.7Q202.8 504.7 202.0 505.2Q201.2 505.6 201.2 506.4L201.2 506.4Q201.2 507.1 201.7 507.5Q202.2 507.9 203.5 508.2L203.5 508.2L206.6 508.8Q209.2 509.3 210.4 510.5Q211.7 511.7 211.7 513.5L211.7 513.5Q211.7 515.3 210.7 516.6Q209.6 517.8 207.9 518.6Q206.2 519.3 203.9 519.3L203.9 519.3Q200.4 519.3 198.4 517.8Q196.3 516.4 196.0 513.9L196.0 513.9L200.7 513.6Q200.9 514.7 201.8 515.3Q202.6 515.8 203.9 515.8L203.9 515.8Q205.2 515.8 205.9 515.3Q206.7 514.8 206.7 514.0L206.7 514.0Q206.7 513.4 206.2 512.9Q205.6 512.5 204.5 512.3L204.5 512.3L201.5 511.7Q198.9 511.2 197.7 509.9Q196.4 508.7 196.4 506.7L196.4 506.7Q196.4 505.0 197.3 503.8Q198.3 502.6 199.9 501.9Q201.6 501.3 203.8 501.3L203.8 501.3Q207.1 501.3 209.0 502.7Q210.9 504.1 211.3 506.5ZM213.5 501.5L224.0 501.5L224.0 505.1L213.5 505.1L213.5 501.5ZM215.9 514.2L215.9 497.3L220.7 497.3L220.7 513.6Q220.7 514.3 220.9 514.6Q221.1 515.0 221.5 515.1Q221.9 515.3 222.4 515.3L222.4 515.3Q222.7 515.3 223.0 515.2Q223.4 515.2 223.6 515.1L223.6 515.1L224.3 518.7Q224.0 518.8 223.3 519.0Q222.6 519.2 221.7 519.2L221.7 519.2Q219.9 519.3 218.6 518.7Q217.3 518.2 216.6 517.1Q215.9 515.9 215.9 514.2L215.9 514.2ZM226.9 507.5L237.5 507.5L237.5 511.3L226.9 511.3L226.9 507.5ZM257.5 519.0L240.9 519.0L240.9 515.4L249.2 507.7Q250.3 506.7 251.0 505.9Q251.7 505.1 252.1 504.3Q252.5 503.5 252.5 502.6L252.5 502.6Q252.5 501.6 252.0 500.8Q251.5 500.1 250.7 499.7Q249.9 499.3 248.9 499.3L248.9 499.3Q247.8 499.3 247.0 499.7Q246.2 500.1 245.8 500.9Q245.4 501.7 245.4 502.8L245.4 502.8L240.7 502.8Q240.7 500.6 241.7 498.9Q242.8 497.2 244.6 496.3Q246.5 495.4 248.9 495.4L248.9 495.4Q251.4 495.4 253.3 496.2Q255.1 497.1 256.2 498.7Q257.2 500.2 257.2 502.2L257.2 502.2Q257.2 503.6 256.7 504.8Q256.2 506.1 254.9 507.7Q253.5 509.3 251.1 511.4L251.1 511.4L247.7 514.8L247.7 514.9L257.5 514.9L257.5 519.0Z " style="filter:drop-shadow()"/><defs><clipPath id="satori_bc-id-0-0-0-1-1"><path x="914" y="328" width="200" height="200" d="M922,328 h184 a8,8 0 0 1 8,8 v184 a8,8 0 0 1 -8,8 h-184 a8,8 0 0 1 -8,-8 v-184 a8,8 0 0 1 8,-8"/></clipPath></defs><path width="200" height="200" clip-path="url(#satori_bc-id-0-0-0-1-1)" fill="none" stroke="black" stroke-width="6" d="M916.343,330.343 A8,8 0 0 1 922,328 h184 a8,8 0 0 1 8,8 v184 a8,8 0 0 1 -8,8 h-184 a8,8 0 0 1 -8,-8 v-184 A8,8 0 0 1 916.343,330.343"/></svg>