<svg width="1200" height="630" viewBox="0 0 1200 630" xmlns="http://www.w3.org/2000/svg"><rect x="0" y="0" width="1200" height="630" fill="#f472b6"/><defs><clipPath id="satori_bc-id-0-0"><path x="48" y="48" width="1104" height="534" d="M56,48 h1088 a8,8 0 0 1 8,8 v518 a8,8 0 0 1 -8,8 h-1088 a8,8 0 0 1 -8,-8 v-518 a8,8 0 0 1 8,-8"/></clipPath></defs><path x="48" y="48" width="1104" height="534" fill="white" d="M56,48 h1088 a8,8 0 0 1 8,8 v518 a8,8 0 0 1 -8,8 h-1088 a8,8 0 0 1 -8,-8 v-518 a8,8 0 0 1 8,-8" style="filter:drop-shadow(6px 6px 0 rgba(0, 0, 0, 1))"/><path width="1104" height="534" clip-path="url(#satori_bc-id-0-0)" fill="none" stroke="black" stroke-width="12" d="M50.343,50.343 A8,8 0 0 1 56,48 h1088 a8,8 0 0 1 8,8 v518 a8,8 0 0 1 -8,8 h-1088 a8,8 0 0 1 -8,-8 v-518 A8,8 0 0 1 50.343,50.343"/><path fill="black" d="M103.8 120.0L95.1 146.9L87.1 146.9L99.2 112.0L108.7 112.0L120.7 146.9L112.8 146.9L104.1 120.0L103.8 120.0ZM94.6 139.0L94.6 133.2L113.2 133.2L113.2 139.0L94.6 139.0ZM132.1 146.9L124.9 146.9L124.9 112.0L132.2 112.0L132.2 125.1L132.4 125.1Q132.9 124.1 133.8 123.0Q134.7 121.9 136.2 121.1Q137.7 120.4 139.9 120.4L139.9 120.4Q142.7 120.4 145.1 121.9Q147.6 123.4 149.0 126.4Q150.5 129.4 150.5 133.9L150.5 133.9Q150.5 138.3 149.1 141.3Q147.7 144.3 145.2 145.8Q142.8 147.4 139.8 147.4L139.8 147.4Q137.7 147.4 136.3 146.7Q134.8 146.0 133.8 144.9Q132.9 143.8 132.4 142.7L132.4 142.7L132.1 142.7L132.1 146.9ZM132.0 133.8L132.0 133.8Q132.0 136.2 132.7 137.9Q133.3 139.6 134.6 140.6Q135.8 141.6 137.5 141.6L137.5 141.6Q139.3 141.6 140.5 140.6Q141.8 139.6 142.4 137.9Q143.1 136.1 143.1 133.8L143.1 133.8Q143.1 131.6 142.4 129.8Q141.8 128.1 140.6 127.2Q139.3 126.2 137.5 126.2L137.5 126.2Q135.8 126.2 134.6 127.1Q133.3 128.1 132.7 129.8Q132.0 131.5 132.0 133.8ZM167.1 147.4L167.1 147.4Q163.1 147.4 160.3 145.7Q157.4 144.0 155.8 141.0Q154.2 138.0 154.2 133.9L154.2 133.9Q154.2 129.9 155.8 126.8Q157.4 123.8 160.3 122.1Q163.1 120.4 167.1 120.4L167.1 120.4Q171.1 120.4 174.0 122.1Q176.9 123.8 178.4 126.8Q180.0 129.9 180.0 133.9L180.0 133.9Q180.0 138.0 178.4 141.0Q176.9 144.0 174.0 145.7Q171.1 147.4 167.1 147.4ZM167.2 141.8L167.2 141.8Q169.0 141.8 170.2 140.8Q171.4 139.8 172.0 138.0Q172.6 136.2 172.6 133.9L172.6 133.9Q172.6 131.6 172.0 129.8Q171.4 128.0 170.2 127.0Q169.0 125.9 167.2 125.9L167.2 125.9Q165.3 125.9 164.1 127.0Q162.9 128.0 162.2 129.8Q161.6 131.6 161.6 133.9L161.6 133.9Q161.6 136.2 162.2 138.0Q162.9 139.8 164.1 140.8Q165.3 141.8 167.2 141.8ZM201.5 135.8L201.5 135.8L201.5 120.7L208.8 120.7L208.8 146.9L201.8 146.9L201.8 142.2L201.6 142.2Q200.7 144.5 198.6 145.9Q196.6 147.3 193.6 147.3L193.6 147.3Q191.0 147.3 189.0 146.1Q187.0 144.9 185.9 142.7Q184.8 140.5 184.7 137.4L184.7 137.4L184.7 120.7L192.0 120.7L192.0 136.1Q192.0 138.4 193.3 139.8Q194.5 141.1 196.5 141.1L196.5 141.1Q197.9 141.1 199.0 140.5Q200.1 139.9 200.8 138.7Q201.6 137.5 201.5 135.8ZM212.8 120.7L228.5 120.7L228.5 126.2L212.8 126.2L212.8 120.7ZM216.3 139.8L216.3 114.5L223.6 114.5L223.6 138.9Q223.6 139.9 223.9 140.4Q224.2 141.0 224.8 141.2Q225.3 141.4 226.0 141.4L226.0 141.4Q226.6 141.4 227.1 141.3Q227.6 141.3 227.9 141.2L227.9 141.2L229.0 146.6Q228.4 146.8 227.5 147.0Q226.5 147.2 225.1 147.3L225.1 147.3Q222.4 147.4 220.5 146.6Q218.5 145.8 217.4 144.1Q216.3 142.4 216.3 139.8L216.3 139.8Z M251.6 146.9L244.4 146.9L244.4 120.7L251.3 120.7L251.3 125.4L251.6 125.4Q252.4 123.1 254.3 121.7Q256.2 120.4 258.9 120.4L258.9 120.4Q261.6 120.4 263.5 121.7Q265.4 123.1 266 125.4L266 125.4L266.3 125.4Q267.1 123.1 269.2 121.8Q271.3 120.4 274.2 120.4L274.2 120.4Q277.8 120.4 280.1 122.7Q282.4 125.1 282.4 129.3L282.4 129.3L282.4 146.9L275.2 146.9L275.2 130.8Q275.2 128.6 274.0 127.5Q272.9 126.4 271.1 126.4L271.1 126.4Q269.1 126.4 268.0 127.6Q266.9 128.9 266.9 130.9L266.9 130.9L266.9 146.9L259.9 146.9L259.9 130.6Q259.9 128.7 258.8 127.5Q257.7 126.4 255.9 126.4L255.9 126.4Q254.7 126.4 253.7 127.0Q252.8 127.6 252.2 128.7Q251.6 129.8 251.6 131.2L251.6 131.2L251.6 146.9ZM300.1 147.4L300.1 147.4Q296.0 147.4 293.1 145.8Q290.2 144.1 288.7 141.1Q287.1 138.1 287.1 134.0L287.1 134.0Q287.1 129.9 288.7 126.9Q290.2 123.8 293.1 122.1Q295.9 120.4 299.8 120.4L299.8 120.4Q302.4 120.4 304.6 121.2Q306.9 122.1 308.5 123.7Q310.2 125.4 311.2 127.9Q312.1 130.4 312.1 133.7L312.1 133.7L312.1 135.7L290.0 135.7L290.0 131.2L305.3 131.2Q305.3 129.6 304.6 128.4Q303.9 127.2 302.7 126.5Q301.5 125.8 299.9 125.8L299.9 125.8Q298.3 125.8 297.0 126.6Q295.7 127.3 295.0 128.6Q294.3 129.9 294.3 131.4L294.3 131.4L294.3 135.7Q294.3 137.7 295.0 139.1Q295.7 140.5 297.0 141.3Q298.4 142.0 300.2 142.0L300.2 142.0Q301.4 142.0 302.4 141.7Q303.4 141.3 304.1 140.7Q304.8 140.0 305.2 139.0L305.2 139.0L311.9 139.4Q311.4 141.8 309.8 143.6Q308.3 145.4 305.8 146.4Q303.3 147.4 300.1 147.4Z " style="filter:drop-shadow()"/><path fill="black" d="M92.8 519.0L88.0 519.0L88.0 495.7L92.9 495.7L92.9 504.4L93.0 504.4Q93.3 503.7 93.9 503.0Q94.5 502.3 95.5 501.8Q96.5 501.3 98.0 501.3L98.0 501.3Q99.9 501.3 101.5 502.3Q103.1 503.3 104.1 505.3Q105.0 507.2 105.0 510.2L105.0 510.2Q105.0 513.2 104.1 515.2Q103.2 517.2 101.6 518.2Q100.0 519.2 98.0 519.2L98.0 519.2Q96.6 519.2 95.6 518.8Q94.6 518.3 94.0 517.6Q93.3 516.9 93.0 516.2L93.0 516.2L92.8 516.2L92.8 519.0ZM92.8 510.2L92.8 510.2Q92.8 511.8 93.2 512.9Q93.6 514.1 94.4 514.7Q95.3 515.4 96.4 515.4L96.4 515.4Q97.6 515.4 98.4 514.7Q99.3 514.1 99.7 512.9Q100.1 511.7 100.1 510.2L100.1 510.2Q100.1 508.7 99.7 507.6Q99.3 506.4 98.4 505.8Q97.6 505.1 96.4 505.1L96.4 505.1Q95.3 505.1 94.4 505.7Q93.6 506.4 93.2 507.5Q92.8 508.7 92.8 510.2ZM108.3 495.7L113.1 495.7L113.1 519.0L108.3 519.0L108.3 495.7ZM124.9 519.3L124.9 519.3Q122.2 519.3 120.3 518.2Q118.4 517.0 117.3 515.0Q116.3 513.0 116.3 510.3L116.3 510.3Q116.3 507.6 117.3 505.6Q118.4 503.5 120.3 502.4Q122.2 501.3 124.9 501.3L124.9 501.3Q127.5 501.3 129.4 502.4Q131.4 503.5 132.4 505.6Q133.4 507.6 133.4 510.3L133.4 510.3Q133.4 513.0 132.4 515.0Q131.4 517.0 129.4 518.2Q127.5 519.3 124.9 519.3ZM124.9 515.5L124.9 515.5Q126.1 515.5 126.9 514.9Q127.7 514.2 128.1 513.0Q128.5 511.8 128.5 510.3L128.5 510.3Q128.5 508.7 128.1 507.5Q127.7 506.3 126.9 505.7Q126.1 505.0 124.9 505.0L124.9 505.0Q123.7 505.0 122.8 505.7Q122.0 506.3 121.6 507.5Q121.2 508.7 121.2 510.3L121.2 510.3Q121.2 511.8 121.6 513.0Q122.0 514.2 122.8 514.9Q123.7 515.5 124.9 515.5ZM144.5 525.9L144.5 525.9Q142.1 525.9 140.4 525.2Q138.8 524.6 137.8 523.5Q136.8 522.4 136.5 521.0L136.5 521.0L141.0 520.4Q141.2 520.9 141.6 521.4Q142.1 521.8 142.8 522.1Q143.5 522.4 144.6 522.4L144.6 522.4Q146.2 522.4 147.2 521.6Q148.2 520.8 148.2 519.1L148.2 519.1L148.2 515.9L148.0 515.9Q147.7 516.6 147.1 517.2Q146.4 517.9 145.4 518.3Q144.4 518.7 143.0 518.7L143.0 518.7Q141.1 518.7 139.5 517.8Q137.9 516.9 136.9 515.0Q136.0 513.1 136.0 510.2L136.0 510.2Q136.0 507.2 136.9 505.2Q137.9 503.2 139.5 502.3Q141.1 501.3 143.0 501.3L143.0 501.3Q144.5 501.3 145.5 501.8Q146.5 502.3 147.1 503.0Q147.7 503.7 148.0 504.4L148.0 504.4L148.2 504.4L148.2 501.5L153 501.5L153 519.1Q153 521.3 151.9 522.8Q150.8 524.3 148.9 525.1Q147.0 525.9 144.5 525.9ZM144.6 515.1L144.6 515.1Q145.7 515.1 146.6 514.5Q147.4 513.9 147.8 512.8Q148.2 511.7 148.2 510.2L148.2 510.2Q148.2 508.6 147.8 507.5Q147.4 506.4 146.6 505.7Q145.7 505.1 144.6 505.1L144.6 505.1Q143.4 505.1 142.6 505.8Q141.7 506.4 141.3 507.5Q140.9 508.7 140.9 510.2L140.9 510.2Q140.9 511.7 141.3 512.8Q141.8 513.9 142.6 514.5Q143.4 515.1 144.6 515.1ZM161.7 525.5L156.9 525.5L156.9 501.5L161.6 501.5L161.6 504.4L161.9 504.4Q162.2 503.7 162.8 503.0Q163.4 502.3 164.4 501.8Q165.4 501.3 166.8 501.3L166.8 501.3Q168.7 501.3 170.3 502.3Q172.0 503.3 172.9 505.3Q173.9 507.2 173.9 510.2L173.9 510.2Q173.9 513.2 172.9 515.2Q172.0 517.2 170.4 518.2Q168.8 519.2 166.8 519.2L166.8 519.2Q165.4 519.2 164.4 518.8Q163.4 518.3 162.8 517.6Q162.2 516.9 161.9 516.2L161.9 516.2L161.7 516.2L161.7 525.5ZM161.6 510.2L161.6 510.2Q161.6 511.8 162.0 512.9Q162.5 514.1 163.3 514.7Q164.1 515.4 165.3 515.4L165.3 515.4Q166.5 515.4 167.3 514.7Q168.1 514.1 168.5 512.9Q168.9 511.7 168.9 510.2L168.9 510.2Q168.9 508.7 168.5 507.6Q168.1 506.4 167.3 505.8Q166.5 505.1 165.3 505.1L165.3 505.1Q164.1 505.1 163.3 505.7Q162.5 506.4 162.0 507.5Q161.6 508.7 161.6 510.2ZM185.0 519.3L185.0 519.3Q182.3 519.3 180.4 518.2Q178.5 517.0 177.4 515.0Q176.4 513.0 176.4 510.3L176.4 510.3Q176.4 507.6 177.4 505.6Q178.5 503.5 180.4 502.4Q182.3 501.3 185.0 501.3L185.0 501.3Q187.6 501.3 189.6 502.4Q191.5 503.5 192.5 505.6Q193.6 507.6 193.6 510.3L193.6 510.3Q193.6 513.0 192.5 515.0Q191.5 517.0 189.6 518.2Q187.6 519.3 185.0 519.3ZM185.0 515.5L185.0 515.5Q186.2 515.5 187.0 514.9Q187.8 514.2 188.2 513.0Q188.7 511.8 188.7 510.3L188.7 510.3Q188.7 508.7 188.2 507.5Q187.8 506.3 187.0 505.7Q186.2 505.0 185.0 505.0L185.0 505.0Q183.8 505.0 183.0 505.7Q182.1 506.3 181.7 507.5Q181.3 508.7 181.3 510.3L181.3 510.3Q181.3 511.8 181.7 513.0Q182.1 514.2 183.0 514.9Q183.8 515.5 185.0 515.5ZM211.3 506.5L211.3 506.5L206.8 506.7Q206.7 506.2 206.3 505.7Q206.0 505.3 205.4 505.0Q204.7 504.7 203.9 504.7L203.9 504.7Q202.8 504.7 202.0 505.2Q201.2 505.6 201.2 506.4L201.2 506.4Q201.2 507.1 201.7 507.5Q202.2 507.9 203.5 508.2L203.5 508.2L206.6 508.8Q209.2 509.3 210.4 510.5Q211.7 511.7 211.7 513.5L211.7 513.5Q211.7 515.3 210.7 516.6Q209.6 517.8 207.9 518.6Q206.2 519.3 203.9 519.3L203.9 519.3Q200.4 519.3 198.4 517.8Q196.3 516.4 196.0 513.9L196.0 513.9L200.7 513.6Q200.9 514.7 201.8 515.3Q202.6 515.8 203.9 515.8L203.9 515.8Q205.2 515.8 205.9 515.3Q206.7 514.8 206.7 514.0L206.7 514.0Q206.7 513.4 206.2 512.9Q205.6 512.5 204.5 512.3L204.5 512.3L201.5 511.7Q198.9 511.2 197.7 509.9Q196.4 508.7 196.4 506.7L196.4 506.7Q196.4 505.0 197.3 503.8Q198.3 502.6 199.9 501.9Q201.6 501.3 203.8 501.3L203.8 501.3Q207.1 501.3 209.0 502.7Q210.9 504.1 211.3 506.5ZM213.5 501.5L224.0 501.5L224.0 505.1L213.5 505.1L213.5 501.5ZM215.9 514.2L215.9 497.3L220.7 497.3L220.7 513.6Q220.7 514.3 220.9 514.6Q221.1 515.0 221.5 515.1Q221.9 515.3 222.4 515.3L222.4 515.3Q222.7 515.3 223.0 515.2Q223.4 515.2 223.6 515.1L223.6 515.1L224.3 518.7Q224.0 518.8 223.3 519.0Q222.6 519.2 221.7 519.2L221.7 519.2Q219.9 519.3 218.6 518.7Q217.3 518.2 216.6 517.1Q215.9 515.9 215.9 514.2L215.9 514.2ZM226.9 507.5L237.5 507.5L237.5 511.3L226.9 511.3L226.9 507.5ZM247.1 495.7L251.7 495.7L251.7 519.0L246.8 519.0L246.8 500.3L246.6 500.3L241.3 503.7L241.3 499.3L247.1 495.7Z " style="filter:drop-shadow()"/><defs><clipPath id="satori_bc-id-0-0-0-1-1"><path x="914" y="328" width="200" height="200" d="M922,328 h184 a8,8 0 0 1 8,8 v184 a8,8 0 0 1 -8,8 h-184 a8,8 0 0 1 -8,-8 v-184 a8,8 0 0 1 8,-8"/></clipPath></defs><path width="200" height="200" clip-path="url(#satori_bc-id-0-0-0-1-1)" fill="none" stroke="black" stroke-width="6" d="M916.343,330.343 A8,8 0 0 1 922,328 h184 a8,8 0 0 1 8,8 v184 a8,8 0 0 1 -8,8 h-184 a8,8 0 0 1 -8,-8 v-184 A8,8 0 0 1 916.343,330.343"/></svg>